<svg width="341" height="168" viewBox="0 0 341 168" fill="none" xmlns="http://www.w3.org/2000/svg">
    <rect width="341" height="168" rx="10" fill="#F7E9FF"/>
    <path fill-rule="evenodd" clip-rule="evenodd" d="M346.141 37.1584L346.136 37.6584L346.122 38.1582L346.098 38.6578L346.064 39.157L346.021 39.6557L345.968 40.1537L345.905 40.651L345.833 41.1473L345.751 41.6427L345.66 42.1368L345.56 42.6297L345.449 43.1211L345.33 43.611L345.2 44.0993L345.062 44.5857L344.914 45.0702L344.757 45.5527L344.59 46.033L344.414 46.511L344.229 46.9866L344.035 47.4596L343.832 47.93L343.619 48.3976L343.398 48.8623L343.167 49.324L342.928 49.7825L342.68 50.2378L342.422 50.6897L342.157 51.1381L341.882 51.583L341.599 52.0241L341.307 52.4614L341.007 52.8948L340.698 53.3241L340.381 53.7493L340.056 54.1702L339.723 54.5868L339.381 54.9989L339.032 55.4064L338.674 55.8093L338.309 56.2074L337.935 56.6007L337.555 56.989L337.166 57.3722L336.77 57.7503L336.367 58.1231L335.956 58.4906L335.538 58.8528L335.113 59.2094L334.68 59.5604L334.241 59.9057L333.795 60.2453L333.343 60.5791L332.883 60.9069L332.417 61.2288L331.945 61.5446L331.467 61.8543L330.982 62.1578L330.491 62.455L329.994 62.7458L329.491 63.0303L328.983 63.3083L328.469 63.5798L327.949 63.8448L327.424 64.103L326.894 64.3546L326.359 64.5995L325.818 64.8375L325.273 65.0688L324.723 65.2931L324.168 65.5105L323.609 65.721L323.045 65.9244L322.477 66.1208L321.905 66.3101L321.329 66.4923L320.749 66.6674L320.165 66.8353L319.578 66.996L318.987 67.1495L318.392 67.2958L317.795 67.4348L317.194 67.5665L316.59 67.6909L315.984 67.8081L315.375 67.9179L314.763 68.0204L314.148 68.1156L313.532 68.2035L312.913 68.284L312.292 68.3573L311.67 68.4232L311.045 68.4818L310.419 68.5331L309.791 68.5771L309.162 68.6138L308.532 68.6433L307.901 68.6655L307.268 68.6805L306.635 68.6884L306.001 68.689L305.367 68.6825L304.732 68.6689L304.096 68.6481L303.461 68.6204L302.825 68.5856L302.19 68.5439L301.555 68.4952L300.92 68.4396L300.285 68.3771L299.652 68.3079L299.018 68.2319L298.386 68.1492L297.755 68.0599L297.125 67.964L296.496 67.8615L295.868 67.7526L295.242 67.6372L294.618 67.5156L293.995 67.3876L293.374 67.2534L292.755 67.1131L292.138 66.9667L291.523 66.8143L290.91 66.656L290.3 66.4918L289.693 66.3219L289.088 66.1463L288.486 65.9651L287.886 65.7784L287.29 65.5862L286.697 65.3887L286.106 65.186L285.52 64.9781L284.936 64.7651L284.356 64.5472L283.78 64.3244L283.207 64.0969L282.638 63.8646L282.073 63.6278L281.512 63.3865L280.955 63.1409L280.402 62.891L279.853 62.637L279.309 62.3789L278.769 62.1168L278.233 61.851L277.702 61.5814L277.176 61.3083L276.655 61.0317L276.138 60.7517L275.626 60.4684L275.119 60.182L274.617 59.8927L274.12 59.6004L273.629 59.3053L273.142 59.0077L272.661 58.7074L272.185 58.4048L271.715 58.0999L271.25 57.7929L270.79 57.4838L270.336 57.1729L269.888 56.8601L269.445 56.5457L269.008 56.2299L268.577 55.9126L268.151 55.594L267.732 55.2744L267.318 54.9537L266.91 54.6322L266.508 54.31L266.112 53.9871L265.722 53.6638L265.338 53.3402L264.96 53.0163L264.588 52.6924L264.223 52.3685L263.863 52.0448L263.51 51.7215L263.162 51.3986L262.821 51.0763L262.486 50.7547L262.157 50.434L261.834 50.1142L261.518 49.7956L261.207 49.4782L260.903 49.1622L260.605 48.8477L260.313 48.5349L260.028 48.2238L259.748 47.9146L259.475 47.6075L259.207 47.3025L258.946 46.9998L258.691 46.6995L258.442 46.4018L258.199 46.1067L257.962 45.8144L257.732 45.525L257.507 45.2386L257.288 44.9555L257.075 44.6755L256.867 44.399L256.666 44.1261L256.471 43.8567L256.281 43.5911L256.097 43.3294L255.918 43.0717L255.746 42.818L255.578 42.5686L255.417 42.3235L255.261 42.0829L255.11 41.8468L254.965 41.6153L254.825 41.3886L254.69 41.1668L254.56 40.9499L254.436 40.7381L254.316 40.5315L254.202 40.3302L254.093 40.1342L253.988 39.9437L253.888 39.7587L253.793 39.5794L253.703 39.4058L253.617 39.238L253.536 39.0762L253.459 38.9204L253.387 38.7706L253.318 38.627L253.254 38.4897L253.194 38.3587L253.138 38.2341L253.086 38.1159L253.038 38.0043L252.994 37.8993L252.953 37.801L252.916 37.7095L252.882 37.6248L252.851 37.5469L252.824 37.476L252.801 37.4121L252.78 37.3552L252.762 37.3055L252.747 37.2628L252.735 37.2274L252.726 37.1993L252.719 37.1784L252.714 37.1649L252.713 37.1588L252.713 37.1601L252.716 37.1688L252.72 37.185L252.727 37.2088L252.735 37.2401L252.746 37.2789L252.757 37.3254L252.771 37.3795L252.786 37.4412L252.802 37.5106L252.819 37.5877L252.838 37.6724L252.858 37.7648L252.878 37.865L252.899 37.9728L252.921 38.0884L252.944 38.2116L252.967 38.3426L252.99 38.4813L253.013 38.6277L253.037 38.7817L253.061 38.9435L253.084 39.1129L253.107 39.29L253.13 39.4747L253.153 39.667L253.175 39.8669L253.196 40.0743L253.217 40.2893L253.237 40.5118L253.255 40.7418L253.273 40.9792L253.29 41.224L253.305 41.4762L253.319 41.7356L253.331 42.0024L253.341 42.2764L253.35 42.5575L253.357 42.8458L253.363 43.1412L253.366 43.4436L253.367 43.7529L253.365 44.0692L253.362 44.3923L253.356 44.7221L253.347 45.0587L253.336 45.4019L253.322 45.7517L253.305 46.108L253.286 46.4707L253.263 46.8397L253.237 47.215L253.208 47.5965L253.176 47.9841L253.14 48.3778L253.101 48.7773L253.059 49.1827L253.012 49.5939L252.962 50.0107L252.908 50.4331L252.851 50.861L252.789 51.2942L252.723 51.7327L252.653 52.1764L252.579 52.6252L252.501 53.0789L252.419 53.5375L252.332 54.0008L252.24 54.4688L252.144 54.9414L252.043 55.4183L251.938 55.8995L251.828 56.385L251.713 56.8745L251.593 57.368L251.469 57.8653L251.339 58.3663L251.204 58.8709L251.065 59.379L250.92 59.8905L250.77 60.4052L250.615 60.9229L250.454 61.4437L250.288 61.9672L250.117 62.4935L249.941 63.0224L249.759 63.5537L249.571 64.0874L249.379 64.6232L249.18 65.161L248.976 65.7008L248.767 66.2424L248.552 66.7856L248.331 67.3303L248.104 67.8764L247.872 68.4237L247.635 68.972L247.391 69.5214L247.142 70.0715L246.887 70.6223L246.627 71.1737L246.361 71.7254L246.088 72.2774L245.811 72.8295L245.527 73.3816L245.238 73.9335L244.943 74.485L244.643 75.0361L244.336 75.5866L244.024 76.1364L243.706 76.6853L243.383 77.2331L243.054 77.7798L242.719 78.3251L242.379 78.869L242.033 79.4113L241.682 79.9519L241.325 80.4906L240.962 81.0273L240.594 81.5618L240.221 82.094L239.842 82.6238L239.458 83.151L239.068 83.6755L238.673 84.1972L238.273 84.7158L237.868 85.2314L237.458 85.7437L237.042 86.2525L236.622 86.7579L236.196 87.2596L235.766 87.7576L235.331 88.2516L234.891 88.7415L234.446 89.2273L233.996 89.7088L233.542 90.1858L233.083 90.6583L232.62 91.1261L232.153 91.5891L231.681 92.0471L231.204 92.5002L230.724 92.948L230.239 93.3905L229.751 93.8277L229.258 94.2593L228.762 94.6853L228.262 95.1055L227.758 95.5199L227.251 95.9284L226.74 96.3307L226.225 96.7269L225.708 97.1167L225.187 97.5002L224.663 97.8772L224.135 98.2476L223.605 98.6113L223.072 98.9682L222.537 99.3183L221.998 99.6613L221.458 99.9973L220.914 100.326L220.369 100.648L219.821 100.962L219.271 101.269L218.719 101.568L218.165 101.86L217.609 102.144L217.052 102.421L216.493 102.689L215.933 102.95L215.371 103.203L214.809 103.448L214.245 103.685L213.68 103.913L213.114 104.134L212.548 104.346L211.981 104.55L211.413 104.745L210.845 104.933L210.277 105.111L209.709 105.281L209.141 105.443L208.573 105.596L208.005 105.74L207.438 105.876L206.871 106.003L206.304 106.122L205.739 106.231L205.174 106.332L204.61 106.424L204.048 106.507L203.487 106.581L202.927 106.646L202.369 106.703L201.812 106.75L201.257 106.789L200.704 106.818L200.153 106.839L199.604 106.851L199.058 106.853L198.514 106.847L197.972 106.832L197.433 106.808L196.897 106.775L196.364 106.733L195.834 106.682L195.307 106.622L194.784 106.553L194.263 106.476L193.747 106.389L193.234 106.294L192.725 106.19L192.219 106.077L191.718 105.956L191.221 105.826L190.728 105.687L190.24 105.539L189.756 105.383L189.277 105.218L188.802 105.045L188.333 104.864L187.868 104.674L187.408 104.475L186.954 104.268L186.505 104.053L186.061 103.83L185.623 103.599L185.191 103.36L184.764 103.112L184.343 102.857L183.928 102.594L183.52 102.323L183.117 102.044L182.721 101.757L182.331 101.463L181.947 101.162L181.57 100.853L181.2 100.537L180.837 100.213L180.48 99.8825L180.13 99.5447L179.787 99.1999L179.452 98.8481L179.123 98.4896L178.802 98.1243L178.488 97.7524L178.182 97.374L177.883 96.9891L177.592 96.5979L177.309 96.2005L177.033 95.7969L176.765 95.3873L176.505 94.9718L176.253 94.5505L176.009 94.1235L175.773 93.6909L175.545 93.2528L175.325 92.8093L175.114 92.3606L174.911 91.9068L174.716 91.4479L174.53 90.9841L174.352 90.5155L174.183 90.0423L174.022 89.5645L173.87 89.0823L173.726 88.5958L173.592 88.1051L173.466 87.6103L173.349 87.1117L173.24 86.6092L173.141 86.103L173.05 85.5933L172.968 85.0802L172.895 84.5638L172.831 84.0442L172.776 83.5216L172.73 82.9961L172.693 82.4678L172.665 81.9368L172.646 81.4034L172.636 80.8676L172.635 80.3295L172.643 79.7893L172.66 79.2471L172.686 78.7031L172.721 78.1574L172.765 77.61L172.818 77.0613L172.88 76.5112L172.951 75.9599L173.031 75.4076L173.12 74.8544L173.219 74.3003L173.325 73.7457L173.441 73.1905L173.566 72.6349L173.7 72.079L173.842 71.5231L173.993 70.9671L174.153 70.4113L174.322 69.8557L174.499 69.3006L174.685 68.7459L174.879 68.192L175.082 67.6388L175.294 67.0865L175.514 66.5352L175.742 65.9851L175.979 65.4363L176.224 64.8889L176.478 64.3431L176.739 63.7989L177.009 63.2564L177.286 62.7159L177.572 62.1774L177.865 61.641L178.167 61.1069L178.476 60.5752L178.793 60.0459L179.117 59.5192L179.449 58.9953L179.789 58.4741L180.136 57.9559L180.49 57.4408L180.851 56.9288L181.22 56.42L181.595 55.9146L181.978 55.4127L182.367 54.9144L182.763 54.4197L183.166 53.9287L183.575 53.4417L183.991 52.9586L184.413 52.4795L184.842 52.0046L185.277 51.5339L185.717 51.0676L186.164 50.6057L186.617 50.1482L187.075 49.6954L187.539 49.2472L188.008 48.8037L188.483 48.3651L188.964 47.9313L189.449 47.5026L189.939 47.0789L190.435 46.6603L190.935 46.2468L191.44 45.8387L191.95 45.4358L192.464 45.0383L192.982 44.6463L193.505 44.2598L194.031 43.8788L194.562 43.5034L195.097 43.1337L195.635 42.7697L196.177 42.4114L196.722 42.059L197.271 41.7124L197.823 41.3717L198.378 41.0369L198.936 40.7081L199.496 40.3853L200.06 40.0685L200.626 39.7578L201.194 39.4532L201.765 39.1547L202.338 38.8624L202.912 38.5762L203.489 38.2962L204.068 38.0224L204.648 37.7548L205.229 37.4935L205.812 37.2383L206.396 36.9895L206.982 36.7469L207.568 36.5105L208.155 36.2804L208.742 36.0566L209.33 35.839L209.919 35.6277L210.508 35.4226L211.097 35.2237L211.686 35.0311L212.275 34.8446L212.863 34.6644L213.451 34.4903L214.039 34.3223L214.626 34.1605L215.212 34.0048L215.797 33.8552L216.381 33.7116L216.964 33.574L217.546 33.4424L218.126 33.3167L218.705 33.1969L219.282 33.083L219.857 32.9749L220.43 32.8725L221.001 32.7759L221.57 32.685L222.137 32.5997L222.701 32.52L223.262 32.4457L223.821 32.377L224.377 32.3136L224.931 32.2556L225.481 32.2029L226.028 32.1553L226.571 32.1129L227.112 32.0756L227.648 32.0433L228.182 32.016L228.711 31.9935L229.237 31.9757L229.759 31.9627L230.276 31.9543L230.79 31.9505L231.299 31.9511L231.804 31.9561L232.305 31.9654L232.801 31.9789L233.292 31.9966L233.779 32.0182L234.261 32.0438L234.738 32.0733L235.21 32.1065L235.677 32.1433L236.139 32.1837L236.595 32.2276L237.047 32.2748L237.492 32.3253L237.933 32.3789L238.367 32.4356L238.796 32.4952L239.22 32.5577L239.638 32.6229L240.049 32.6907L240.455 32.7611L240.855 32.8338L241.249 32.9089L241.637 32.9861L242.018 33.0654L242.394 33.1467L242.763 33.2298L243.125 33.3146L243.482 33.4011L243.832 33.489L244.175 33.5783L244.512 33.6689L244.843 33.7606L245.166 33.8534L245.483 33.947L245.794 34.0415L246.098 34.1366L246.395 34.2322L246.685 34.3283L246.969 34.4247L247.245 34.5212L247.515 34.6179L247.778 34.7144L248.034 34.8108L248.283 34.9069L248.526 35.0025L248.761 35.0976L248.99 35.1921L249.211 35.2857L249.426 35.3784L249.633 35.4701L249.834 35.5607L250.028 35.6499L250.215 35.7378L250.394 35.8242L250.567 35.9089L250.733 35.9918L250.893 36.0729L251.045 36.152L251.19 36.229L251.329 36.3037L251.461 36.3761L251.585 36.4461L251.704 36.5134L251.815 36.5781L251.92 36.64L252.018 36.6989L252.109 36.7548L252.194 36.8076L252.272 36.8571L252.343 36.9032L252.408 36.9459L252.467 36.985L252.519 37.0204L252.565 37.052L252.605 37.0797L252.638 37.1034L252.665 37.123L252.686 37.1384L252.701 37.1495L252.71 37.1562L252.712 37.1584L252.709 37.156L252.701 37.1489L252.686 37.1371L252.666 37.1203L252.64 37.0986L252.608 37.0719L252.571 37.04L252.528 37.0029L252.481 36.9605L252.428 36.9127L252.369 36.8595L252.306 36.8007L252.238 36.7362L252.165 36.6661L252.087 36.5902L252.004 36.5085L251.916 36.4209L251.824 36.3273L251.728 36.2276L251.627 36.1218L251.522 36.0099L251.412 35.8918L251.299 35.7673L251.181 35.6366L251.06 35.4994L250.935 35.3558L250.806 35.2056L250.674 35.049L250.538 34.8857L250.398 34.7159L250.256 34.5393L250.11 34.356L249.961 34.166L249.809 33.9692L249.655 33.7656L249.497 33.5551L249.337 33.3378L249.175 33.1136L249.01 32.8824L248.843 32.6443L248.674 32.3992L248.502 32.1471L248.329 31.8881L248.154 31.622L247.977 31.349L247.799 31.0688L247.619 30.7817L247.437 30.4875L247.255 30.1863L247.071 29.8781L246.887 29.5628L246.701 29.2405L246.515 28.9112L246.328 28.5749L246.14 28.2316L245.952 27.8814L245.764 27.5241L245.576 27.16L245.387 26.7889L245.199 26.4109L245.011 26.0261L244.823 25.6345L244.635 25.236L244.448 24.8308L244.262 24.4189L244.077 24.0003L243.892 23.575L243.708 23.1431L243.526 22.7047L243.344 22.2597L243.164 21.8083L242.986 21.3505L242.809 20.8863L242.633 20.4159L242.46 19.9392L242.288 19.4563L242.119 18.9673L241.951 18.4723L241.786 17.9713L241.623 17.4643L241.463 16.9516L241.305 16.4331L241.15 15.9089L240.997 15.3791L240.848 14.8437L240.701 14.3029L240.558 13.7568L240.417 13.2054L240.28 12.6488L240.147 12.087L240.016 11.5203L239.89 10.9487L239.767 10.3722L239.647 9.79108L239.532 9.20529L239.421 8.61499L239.313 8.02026L239.21 7.42123L239.111 6.81799L239.016 6.21064L238.925 5.5993L238.839 4.98409L238.758 4.36511L238.681 3.74248L238.609 3.11631L238.541 2.48672L238.479 1.85382L238.421 1.21774L238.368 0.578598L238.32 -0.0634842L238.278 -0.708382L238.24 -1.35597L238.208 -2.00613L238.181 -2.65872L238.16 -3.31363L238.144 -3.97071L238.133 -4.62985L238.128 -5.2909L238.129 -5.95374L238.135 -6.61823L238.146 -7.28424L238.164 -7.95163L238.187 -8.62027L238.216 -9.29001L238.251 -9.96073L238.292 -10.6323L238.339 -11.3045L238.392 -11.9773L238.45 -12.6505L238.515 -13.324L238.586 -13.9976L238.663 -14.6712L238.746 -15.3447L238.835 -16.0178L238.93 -16.6905L239.031 -17.3626L239.139 -18.034L239.253 -18.7045L239.373 -19.374L239.499 -20.0423L239.631 -20.7094L239.77 -21.3749L239.915 -22.0389L240.066 -22.7012L240.223 -23.3615L240.387 -24.0198L240.557 -24.676L240.733 -25.3298L240.915 -25.9811L241.103 -26.6299L241.298 -27.2759L241.498 -27.919L241.705 -28.559L241.918 -29.1959L242.137 -29.8294L242.362 -30.4595L242.594 -31.086L242.831 -31.7087L243.074 -32.3275L243.323 -32.9423L243.578 -33.553L243.839 -34.1593L244.106 -34.7612L244.379 -35.3586L244.657 -35.9512L244.941 -36.5389L245.231 -37.1217L245.526 -37.6994L245.827 -38.2718L246.134 -38.8389L246.446 -39.4004L246.763 -39.9563L247.086 -40.5065L247.414 -41.0507L247.747 -41.589L248.085 -42.1211L248.429 -42.6469L248.777 -43.1664L249.131 -43.6794L249.489 -44.1858L249.852 -44.6854L250.22 -45.1782L250.593 -45.664L250.97 -46.1428L251.351 -46.6144L251.737 -47.0787L252.128 -47.5355L252.522 -47.9849L252.921 -48.4267L253.324 -48.8607L253.731 -49.287L254.142 -49.7053L254.556 -50.1156L254.975 -50.5179L255.397 -50.9119L255.822 -51.2976L256.251 -51.675L256.683 -52.0439L257.119 -52.4043L257.557 -52.756L257.999 -53.099L258.444 -53.4332L258.891 -53.7586L259.341 -54.075L259.794 -54.3824L260.249 -54.6807L260.707 -54.9699L261.167 -55.2498L261.629 -55.5204L262.093 -55.7817L262.559 -56.0336L263.027 -56.276L263.496 -56.5089L263.968 -56.7322L264.44 -56.9459L264.915 -57.1499L265.39 -57.3442L265.867 -57.5287L266.344 -57.7034L266.823 -57.8683L267.302 -58.0233L267.782 -58.1684L268.262 -58.3035L268.743 -58.4287L269.224 -58.5438L269.706 -58.6489L270.187 -58.744L270.668 -58.829L271.15 -58.9039L271.631 -58.9687L272.111 -59.0234L272.591 -59.0679L273.07 -59.1024L273.549 -59.1266L274.027 -59.1408L274.503 -59.1448L274.979 -59.1386L275.453 -59.1223L275.925 -59.0959L276.397 -59.0594L276.866 -59.0127L277.334 -58.956L277.8 -58.8892L278.264 -58.8123L278.726 -58.7254L279.185 -58.6285L279.643 -58.5215L280.097 -58.4047L280.55 -58.2779L280.999 -58.1412L281.446 -57.9946L281.889 -57.8383L282.33 -57.6721L282.768 -57.4962L283.202 -57.3106L283.633 -57.1154L284.06 -56.9106L284.484 -56.6962L284.903 -56.4724L285.32 -56.2391L285.732 -55.9964L286.14 -55.7445L286.544 -55.4833L286.943 -55.2129L287.339 -54.9334L287.73 -54.6448L288.116 -54.3473L288.497 -54.0408L288.874 -53.7256L289.246 -53.4016L289.613 -53.0689L289.975 -52.7276L290.332 -52.3779L290.683 -52.0197L291.029 -51.6532L291.37 -51.2784L291.705 -50.8955L292.035 -50.5046L292.359 -50.1057L292.677 -49.6989L292.989 -49.2843L293.295 -48.8621L293.596 -48.4324L293.89 -47.9951L294.178 -47.5506L294.46 -47.0987L294.735 -46.6398L295.004 -46.1738L295.267 -45.7009L295.523 -45.2211L295.773 -44.7347L296.015 -44.2417L296.252 -43.7423L296.481 -43.2365L296.704 -42.7245L296.919 -42.2064L297.128 -41.6823L297.33 -41.1524L297.525 -40.6167L297.712 -40.0754L297.893 -39.5287L298.066 -38.9766L298.233 -38.4192L298.391 -37.8568L298.543 -37.2894L298.687 -36.7172L298.824 -36.1403L298.954 -35.5588L299.076 -34.9729L299.191 -34.3827L299.298 -33.7883L299.398 -33.1899L299.49 -32.5876L299.575 -31.9816L299.652 -31.3719L299.722 -30.7588L299.784 -30.1423L299.838 -29.5226L299.885 -28.8998L299.924 -28.2741L299.956 -27.6457L299.98 -27.0146L299.997 -26.381L300.006 -25.745L300.007 -25.1068L300.001 -24.4665L299.987 -23.8243L299.965 -23.1802L299.937 -22.5345L299.9 -21.8873L299.856 -21.2387L299.805 -20.5889L299.746 -19.9379L299.68 -19.286L299.606 -18.6333L299.525 -17.9798L299.437 -17.3259L299.341 -16.6715L299.238 -16.0168L299.128 -15.362L299.01 -14.7073L298.886 -14.0526L298.754 -13.3982L298.615 -12.7442L298.47 -12.0908L298.317 -11.438L298.157 -10.7861L297.991 -10.1351L297.817 -9.4851L297.637 -8.83634L297.451 -8.18891L297.258 -7.54293L297.058 -6.89853L296.851 -6.25584L296.639 -5.61498L296.42 -4.97607L296.194 -4.33924L295.963 -3.70461L295.725 -3.0723L295.481 -2.44242L295.232 -1.8151L294.976 -1.19044L294.715 -0.568577L294.447 0.0503922L294.175 0.666351L293.896 1.27919L293.613 1.88879L293.324 2.49506L293.029 3.09789L292.73 3.69716L292.425 4.29279L292.116 4.88466L291.801 5.47268L291.482 6.05676L291.158 6.63678L290.829 7.21266L290.496 7.78432L290.159 8.35164L289.817 8.91456L289.471 9.47297L289.121 10.0268L288.768 10.576L288.41 11.1204L288.049 11.66L287.684 12.1946L287.315 12.7243L286.943 13.2489L286.568 13.7684L286.19 14.2828L285.809 14.7918L285.425 15.2955L285.038 15.7938L284.648 16.2867L284.256 16.774L283.861 17.2558L283.464 17.7319L283.065 18.2024L282.664 18.6671L282.261 19.126L281.856 19.5792L281.45 20.0264L281.042 20.4677L280.633 20.9031L280.222 21.3325L279.81 21.7559L279.397 22.1732L278.983 22.5844L278.568 22.9896L278.153 23.3885L277.737 23.7813L277.321 24.168L276.905 24.5484L276.488 24.9226L276.071 25.2905L275.655 25.6522L275.239 26.0076L274.823 26.3568L274.408 26.6997L273.993 27.0363L273.579 27.3666L273.166 27.6907L272.754 28.0085L272.343 28.32L271.933 28.6253L271.525 28.9243L271.118 29.217L270.713 29.5036L270.31 29.7839L269.908 30.058L269.509 30.326L269.112 30.5879L268.717 30.8436L268.324 31.0932L267.934 31.3368L267.547 31.5744L267.162 31.8059L266.78 32.0315L266.401 32.2512L266.025 32.465L265.653 32.673L265.284 32.8752L264.918 33.0717L264.556 33.2624L264.197 33.4475L263.842 33.6271L263.491 33.8011L263.144 33.9696L262.802 34.1327L262.463 34.2904L262.129 34.4429L261.799 34.5901L261.474 34.7321L261.153 34.8691L260.837 35.001L260.526 35.128L260.219 35.2501L259.918 35.3674L259.622 35.4799L259.331 35.5879L259.045 35.6912L258.764 35.79L258.489 35.8845L258.22 35.9746L257.956 36.0605L257.698 36.1422L257.446 36.2199L257.199 36.2935L256.958 36.3634L256.724 36.4294L256.495 36.4917L256.273 36.5505L256.057 36.6057L255.847 36.6576L255.643 36.7061L255.446 36.7515L255.255 36.7937L255.071 36.833L254.894 36.8694L254.723 36.9029L254.558 36.9338L254.401 36.9621L254.25 36.988L254.106 37.0115L253.969 37.0327L253.839 37.0518L253.716 37.0689L253.599 37.084L253.49 37.0974L253.388 37.109L253.293 37.1191L253.205 37.1277L253.124 37.1349L253.051 37.1409L252.984 37.1458L252.925 37.1497L252.873 37.1527L252.828 37.1549L252.791 37.1565L252.761 37.1575L252.738 37.158L252.722 37.1583L252.714 37.1584L252.713 37.1584L252.719 37.1584L252.733 37.1587L252.754 37.1591L252.782 37.16L252.817 37.1614L252.86 37.1634L252.91 37.1662L252.967 37.1698L253.032 37.1744L253.103 37.1801L253.182 37.187L253.268 37.1952L253.361 37.2049L253.461 37.2161L253.569 37.2289L253.683 37.2436L253.804 37.2601L253.933 37.2786L254.068 37.2993L254.21 37.3221L254.359 37.3473L254.514 37.375L254.677 37.4051L254.846 37.438L255.022 37.4736L255.204 37.512L255.393 37.5534L255.589 37.5979L255.79 37.6456L255.999 37.6965L256.213 37.7508L256.434 37.8086L256.661 37.8699L256.894 37.935L257.133 38.0037L257.377 38.0764L257.628 38.1529L257.885 38.2335L258.147 38.3183L258.415 38.4072L258.688 38.5005L258.967 38.5981L259.252 38.7002L259.541 38.8068L259.836 38.9181L260.136 39.0341L260.441 39.1548L260.751 39.2805L261.066 39.411L261.385 39.5466L261.709 39.6873L262.038 39.8331L262.371 39.9841L262.708 40.1404L263.05 40.302L263.396 40.469L263.746 40.6415L264.099 40.8195L264.457 41.0031L264.818 41.1923L265.183 41.3872L265.551 41.5878L265.923 41.7942L266.298 42.0064L266.676 42.2245L267.057 42.4484L267.441 42.6784L267.828 42.9143L268.217 43.1562L268.609 43.4042L269.003 43.6582L269.4 43.9184L269.799 44.1847L270.199 44.4571L270.602 44.7358L271.007 45.0206L271.413 45.3117L271.821 45.609L272.23 45.9125L272.641 46.2223L273.053 46.5384L273.465 46.8607L273.879 47.1893L274.294 47.5242L274.709 47.8654L275.125 48.2128L275.541 48.5665L275.957 48.9265L276.374 49.2928L276.791 49.6652L277.207 50.0439L277.623 50.4289L278.039 50.82L278.455 51.2173L278.869 51.6207L279.284 52.0302L279.697 52.4459L280.109 52.8676L280.52 53.2954L280.93 53.7291L281.338 54.1688L281.745 54.6145L282.15 55.066L282.554 55.5233L282.956 55.9865L283.355 56.4554L283.753 56.93L284.148 57.4102L284.541 57.896L284.931 58.3873L285.319 58.8842L285.704 59.3864L286.086 59.894L286.465 60.4069L286.841 60.9249L287.214 61.4482L287.583 61.9765L287.949 62.5098L288.311 63.048L288.67 63.5911L289.025 64.139L289.376 64.6916L289.723 65.2487L290.066 65.8104L290.404 66.3765L290.738 66.947L291.068 67.5217L291.393 68.1006L291.714 68.6836L292.03 69.2706L292.341 69.8614L292.647 70.456L292.948 71.0543L293.243 71.6561L293.534 72.2615L293.819 72.8702L294.099 73.4821L294.373 74.0973L294.642 74.7154L294.905 75.3365L295.162 75.9604L295.413 76.587L295.659 77.2162L295.898 77.8478L296.131 78.4819L296.358 79.1181L296.579 79.7564L296.794 80.3968L297.002 81.039L297.203 81.6829L297.398 82.3285L297.587 82.9755L297.769 83.6239L297.944 84.2736L298.112 84.9243L298.274 85.576L298.428 86.2286L298.576 86.8819L298.717 87.5357L298.85 88.19L298.977 88.8446L299.096 89.4993L299.208 90.1542L299.313 90.8089L299.411 91.4633L299.501 92.1174L299.585 92.771L299.66 93.424L299.729 94.0761L299.789 94.7273L299.843 95.3775L299.889 96.0265L299.927 96.6741L299.958 97.3202L299.982 97.9647L299.998 98.6074L300.006 99.2483L300.007 99.8871L300 100.524L299.985 101.158L299.963 101.79L299.934 102.419L299.896 103.045L299.852 103.669L299.799 104.29L299.739 104.907L299.672 105.521L299.597 106.132L299.514 106.739L299.424 107.342L299.326 107.941L299.221 108.537L299.108 109.128L298.988 109.715L298.861 110.298L298.726 110.876L298.583 111.45L298.434 112.019L298.277 112.582L298.113 113.141L297.941 113.695L297.763 114.243L297.577 114.786L297.384 115.323L297.184 115.854L296.977 116.38L296.763 116.9L296.543 117.414L296.315 117.921L296.081 118.422L295.84 118.917L295.592 119.405L295.338 119.887L295.077 120.362L294.81 120.83L294.536 121.29L294.256 121.744L293.969 122.191L293.677 122.63L293.378 123.062L293.074 123.486L292.763 123.903L292.446 124.312L292.124 124.713L291.796 125.106L291.462 125.491L291.123 125.868L290.779 126.237L290.429 126.597L290.073 126.949L289.713 127.293L289.347 127.628L288.977 127.954L288.601 128.272L288.221 128.581L287.836 128.881L287.446 129.172L287.052 129.454L286.654 129.727L286.251 129.991L285.844 130.245L285.433 130.49L285.018 130.726L284.599 130.953L284.176 131.17L283.75 131.377L283.32 131.575L282.887 131.763L282.45 131.942L282.011 132.11L281.568 132.27L281.122 132.419L280.673 132.558L280.222 132.688L279.768 132.807L279.311 132.917L278.852 133.017L278.391 133.106L277.927 133.186L277.462 133.255L276.995 133.315L276.526 133.364L276.055 133.404L275.582 133.433L275.109 133.452L274.634 133.461L274.157 133.46L273.68 133.448L273.202 133.427L272.723 133.395L272.243 133.353L271.762 133.302L271.282 133.239L270.8 133.167L270.319 133.085L269.838 132.993L269.356 132.89L268.875 132.778L268.394 132.656L267.913 132.523L267.433 132.381L266.954 132.229L266.475 132.066L265.997 131.894L265.521 131.713L265.045 131.521L264.57 131.32L264.097 131.109L263.626 130.888L263.155 130.658L262.687 130.418L262.22 130.168L261.756 129.91L261.293 129.642L260.833 129.364L260.374 129.078L259.918 128.782L259.465 128.477L259.014 128.163L258.566 127.84L258.121 127.508L257.678 127.168L257.239 126.818L256.802 126.46L256.369 126.094L255.939 125.719L255.513 125.335L255.09 124.943L254.671 124.544L254.255 124.135L253.843 123.719L253.435 123.295L253.031 122.863L252.631 122.424L252.236 121.976L251.844 121.521L251.457 121.059L251.074 120.59L250.696 120.113L250.322 119.629L249.953 119.138L249.588 118.64L249.228 118.136L248.874 117.624L248.524 117.107L248.179 116.583L247.839 116.052L247.505 115.516L247.175 114.973L246.851 114.424L246.532 113.87L246.219 113.31L245.911 112.745L245.608 112.174L245.311 111.597L245.02 111.016L244.734 110.43L244.455 109.838L244.18 109.242L243.912 108.642L243.649 108.036L243.393 107.427L243.142 106.813L242.897 106.196L242.658 105.574L242.425 104.948L242.198 104.319L241.978 103.687L241.763 103.051L241.555 102.412L241.352 101.769L241.156 101.124L240.966 100.476L240.782 99.8254L240.604 99.1722L240.433 98.5167L240.268 97.859L240.108 97.1992L239.956 96.5374L239.809 95.8739L239.669 95.2088L239.535 94.5421L239.407 93.8741L239.285 93.2049L239.17 92.5347L239.06 91.8635L238.957 91.1916L238.86 90.519L238.769 89.846L238.685 89.1726L238.606 88.4991L238.534 87.8255L238.467 87.1519L238.407 86.4786L238.353 85.8057L238.304 85.1333L238.262 84.4615L238.225 83.7906L238.195 83.1206L238.17 82.4516L238.151 81.7839L238.137 81.1175L238.13 80.4525L238.128 79.7892L238.131 79.1277L238.14 78.468L238.155 77.8103L238.175 77.1548L238.2 76.5016L238.231 75.8508L238.267 75.2024L238.308 74.5568L238.355 73.9139L238.406 73.274L238.462 72.637L238.524 72.0033L238.59 71.3727L238.661 70.7456L238.736 70.122L238.817 69.502L238.901 68.8858L238.991 68.2733L239.084 67.6649L239.182 67.0605L239.284 66.4603L239.391 65.8644L239.501 65.2729L239.615 64.6858L239.734 64.1034L239.856 63.5257L239.981 62.9527L240.11 62.3846L240.243 61.8215L240.379 61.2635L240.519 60.7107L240.661 60.163L240.807 59.6208L240.956 59.0839L241.108 58.5526L241.262 58.0269L241.419 57.5068L241.579 56.9924L241.741 56.4839L241.906 55.9813L242.073 55.4846L242.242 54.9939L242.413 54.5094L242.586 54.031L242.76 53.5588L242.937 53.0929L243.115 52.6334L243.295 52.1802L243.476 51.7335L243.658 51.2932L243.841 50.8596L244.026 50.4325L244.211 50.012L244.397 49.5982L244.584 49.1912L244.771 48.7909L244.959 48.3974L245.147 48.0107L245.336 47.6308L245.524 47.2579L245.713 46.8918L245.901 46.5327L246.089 46.1805L246.276 45.8353L246.464 45.4971L246.65 45.1658L246.836 44.8416L247.021 44.5244L247.205 44.2143L247.387 43.9111L247.569 43.615L247.749 43.326L247.928 43.0439L248.106 42.7689L248.281 42.5009L248.455 42.24L248.627 41.986L248.797 41.739L248.965 41.499L249.13 41.2659L249.293 41.0398L249.454 40.8206L249.612 40.6082L249.767 40.4027L249.92 40.2041L250.069 40.0122L250.216 39.8271L250.36 39.6487L250.5 39.477L250.637 39.3119L250.77 39.1535L250.9 39.0015L251.026 38.8561L251.148 38.7172L251.267 38.5847L251.382 38.4585L251.492 38.3386L251.598 38.225L251.701 38.1176L251.798 38.0163L251.892 37.921L251.98 37.8317L252.064 37.7484L252.144 37.6709L252.218 37.5992L252.288 37.5332L252.353 37.4729L252.412 37.4181L252.467 37.3689L252.516 37.325L252.56 37.2864L252.598 37.2531L252.631 37.225L252.659 37.2019L252.681 37.1838L252.697 37.1706L252.708 37.1623L252.712 37.1586L252.711 37.1595L252.704 37.165L252.691 37.1749L252.671 37.1892L252.646 37.2076L252.614 37.2302L252.577 37.2568L252.532 37.2874L252.482 37.3218L252.425 37.3598L252.362 37.4015L252.292 37.4467L252.216 37.4953L252.133 37.5472L252.043 37.6023L251.947 37.6604L251.844 37.7215L251.735 37.7854L251.618 37.852L251.495 37.9212L251.366 37.993L251.229 38.0671L251.085 38.1435L250.935 38.222L250.778 38.3026L250.614 38.385L250.443 38.4693L250.265 38.5552L250.08 38.6426L249.888 38.7315L249.689 38.8217L249.483 38.9131L249.271 39.0056L249.051 39.099L248.824 39.1932L248.591 39.2881L248.351 39.3837L248.103 39.4796L247.849 39.5759L247.588 39.6725L247.32 39.7691L247.045 39.8657L246.764 39.9621L246.475 40.0583L246.18 40.1541L245.878 40.2493L245.569 40.344L245.254 40.4378L244.932 40.5308L244.603 40.6229L244.268 40.7138L243.926 40.8034L243.578 40.8918L243.224 40.9786L242.863 41.0639L242.495 41.1475L242.122 41.2293L241.742 41.3091L241.356 41.387L240.964 41.4626L240.565 41.536L240.161 41.607L239.751 41.6755L239.335 41.7415L238.913 41.8047L238.486 41.8651L238.052 41.9226L237.614 41.9771L237.169 42.0285L236.72 42.0766L236.264 42.1214L235.804 42.1628L235.339 42.2006L234.868 42.2348L234.392 42.2653L233.912 42.2919L233.426 42.3147L232.936 42.3334L232.441 42.3481L231.942 42.3585L231.438 42.3647L230.93 42.3666L230.417 42.364L229.901 42.3568L229.38 42.3451L228.856 42.3287L228.327 42.3075L227.795 42.2815L227.259 42.2505L226.72 42.2146L226.177 42.1736L225.631 42.1275L225.082 42.0762L224.529 42.0196L223.974 41.9577L223.416 41.8904L222.855 41.8177L222.292 41.7395L221.726 41.6557L221.157 41.5664L220.587 41.4713L220.014 41.3705L219.44 41.264L218.863 41.1517L218.285 41.0335L217.705 40.9095L217.124 40.7795L216.541 40.6435L215.958 40.5016L215.373 40.3536L214.787 40.1996L214.2 40.0394L213.612 39.8732L213.024 39.7008L212.436 39.5222L211.847 39.3375L211.258 39.1465L210.669 38.9494L210.08 38.746L209.492 38.5364L208.903 38.3205L208.316 38.0984L207.729 37.87L207.142 37.6353L206.557 37.3944L205.972 37.1473L205.389 36.8939L204.807 36.6342L204.227 36.3684L203.648 36.0963L203.07 35.818L202.495 35.5335L201.922 35.2428L201.35 34.946L200.781 34.6431L200.215 34.334L199.651 34.0189L199.089 33.6978L198.53 33.3706L197.975 33.0375L197.422 32.6984L196.872 32.3534L196.326 32.0025L195.783 31.6459L195.244 31.2835L194.708 30.9153L194.177 30.5415L193.649 30.162L193.125 29.777L192.605 29.3865L192.09 28.9905L191.579 28.5891L191.073 28.1824L190.572 27.7704L190.075 27.3532L189.583 26.9309L189.096 26.5035L188.615 26.0711L188.138 25.6338L187.667 25.1917L187.202 24.7448L186.742 24.2932L186.288 23.837L185.839 23.3763L185.397 22.9111L184.961 22.4416L184.53 21.9679L184.106 21.49L183.689 21.0079L183.278 20.522L182.873 20.0321L182.475 19.5384L182.084 19.0411L181.699 18.5401L181.322 18.0357L180.951 17.5278L180.588 17.0167L180.232 16.5024L179.883 15.985L179.542 15.4647L179.207 14.9415L178.881 14.4155L178.562 13.887L178.251 13.3559L177.947 12.8224L177.652 12.2867L177.364 11.7487L177.084 11.2087L176.812 10.6668L176.548 10.1231L176.293 9.57766L176.046 9.03067L175.807 8.48224L175.576 7.93249L175.353 7.38155L175.14 6.82953L174.934 6.27657L174.737 5.72279L174.549 5.16832L174.369 4.61329L174.198 4.05783L174.036 3.50207L173.882 2.94614L173.738 2.39016L173.602 1.83427L173.475 1.2786L173.356 0.723286L173.247 0.168457L173.146 -0.385761L173.055 -0.939228L172.972 -1.49181L172.899 -2.04338L172.834 -2.59381L172.779 -3.14295L172.732 -3.69068L172.694 -4.23686L172.666 -4.78136L172.646 -5.32405L172.636 -5.8648L172.635 -6.40347L172.642 -6.93992L172.659 -7.47404L172.684 -8.00568L172.719 -8.53471L172.763 -9.061L172.815 -9.58443L172.877 -10.1049L172.947 -10.6222L173.027 -11.1362L173.115 -11.6469L173.212 -12.154L173.318 -12.6575L173.433 -13.1572L173.556 -13.6531L173.689 -14.1449L173.83 -14.6325L173.979 -15.1159L174.138 -15.595L174.305 -16.0694L174.48 -16.5393L174.664 -17.0044L174.856 -17.4647L175.057 -17.9199L175.266 -18.37L175.484 -18.815L175.709 -19.2545L175.943 -19.6887L176.185 -20.1172L176.435 -20.5401L176.693 -20.9572L176.959 -21.3685L177.232 -21.7737L177.514 -22.1728L177.803 -22.5657L178.1 -22.9523L178.404 -23.3325L178.716 -23.7062L179.035 -24.0733L179.361 -24.4337L179.695 -24.7873L180.035 -25.134L180.383 -25.4738L180.738 -25.8065L181.1 -26.132L181.468 -26.4502L181.843 -26.7612L182.225 -27.0647L182.613 -27.3608L183.008 -27.6493L183.409 -27.9302L183.816 -28.2033L184.229 -28.4686L184.648 -28.7261L185.073 -28.9757L185.504 -29.2173L185.941 -29.4508L186.383 -29.6762L186.83 -29.8935L187.283 -30.1025L187.741 -30.3032L188.205 -30.4955L188.673 -30.6795L189.146 -30.855L189.624 -31.022L190.107 -31.1805L190.594 -31.3304L191.085 -31.4717L191.581 -31.6043L192.082 -31.7282L192.586 -31.8434L193.094 -31.9498L193.606 -32.0475L194.121 -32.1363L194.641 -32.2163L195.163 -32.2874L195.689 -32.3496L196.219 -32.403L196.751 -32.4474L197.286 -32.4829L197.824 -32.5094L198.365 -32.5271L198.908 -32.5357L199.454 -32.5354L200.002 -32.5262L200.553 -32.508L201.105 -32.4808L201.66 -32.4447L202.216 -32.3997L202.774 -32.3458L203.333 -32.2829L203.894 -32.2112L204.456 -32.1305L205.019 -32.0411L205.584 -31.9428L206.149 -31.8356L206.715 -31.7197L207.282 -31.5951L207.849 -31.4618L208.417 -31.3197L208.985 -31.169L209.553 -31.0098L210.122 -30.8419L210.69 -30.6656L211.258 -30.4807L211.825 -30.2875L212.392 -30.0859L212.959 -29.8759L213.525 -29.6577L214.09 -29.4313L214.654 -29.1968L215.217 -28.9541L215.779 -28.7034L216.34 -28.4448L216.899 -28.1783L217.457 -27.904L218.013 -27.622L218.567 -27.3322L219.12 -27.0349L219.67 -26.7301L220.219 -26.4178L220.765 -26.0982L221.309 -25.7714L221.85 -25.4373L222.389 -25.0962L222.926 -24.7481L223.46 -24.393L223.99 -24.0312L224.518 -23.6626L225.043 -23.2874L225.565 -22.9057L226.084 -22.5176L226.599 -22.1231L227.111 -21.7225L227.619 -21.3157L228.124 -20.9029L228.625 -20.4843L229.123 -20.0599L229.616 -19.6298L230.106 -19.1941L230.592 -18.753L231.073 -18.3066L231.55 -17.855L232.024 -17.3983L232.492 -16.9367L232.957 -16.4702L233.417 -15.999L233.872 -15.5232L234.323 -15.0429L234.769 -14.5583L235.21 -14.0695L235.647 -13.5766L236.079 -13.0797L236.506 -12.579L236.928 -12.0746L237.344 -11.5667L237.756 -11.0553L238.163 -10.5407L238.564 -10.0228L238.96 -9.50199L239.351 -8.97825L239.737 -8.45177L240.117 -7.92268L240.492 -7.39111L240.862 -6.8572L241.226 -6.32111L241.584 -5.78295L241.937 -5.24289L242.285 -4.70104L242.626 -4.15756L242.963 -3.61259L243.293 -3.06627L243.618 -2.51874L243.938 -1.97014L244.251 -1.42061L244.559 -0.8703L244.861 -0.319351L245.158 0.232101L245.449 0.783913L245.734 1.33594L246.013 1.88803L246.287 2.44007L246.554 2.99189L246.816 3.54336L247.073 4.09434L247.324 4.64469L247.569 5.19426L247.808 5.74293L248.041 6.29053L248.269 6.83696L248.492 7.38205L248.708 7.92567L248.919 8.4677L249.125 9.00798L249.325 9.54638L249.519 10.0828L249.708 10.617L249.891 11.149L250.069 11.6785L250.242 12.2056L250.409 12.7299L250.571 13.2514L250.728 13.77L250.879 14.2855L251.026 14.7979L251.167 15.3069L251.303 15.8125L251.434 16.3145L251.56 16.8129L251.681 17.3074L251.797 17.798L251.908 18.2846L252.015 18.767L252.117 19.2451L252.214 19.7189L252.307 20.1881L252.395 20.6527L252.479 21.1127L252.558 21.5677L252.634 22.0179L252.705 22.4629L252.771 22.9029L252.834 23.3376L252.893 23.7669L252.948 24.1908L252.999 24.6092L253.046 25.0219L253.09 25.4289L253.13 25.8301L253.167 26.2253L253.2 26.6146L253.23 26.9978L253.256 27.3748L253.28 27.7456L253.3 28.1101L253.318 28.4681L253.333 28.8197L253.344 29.1647L253.354 29.5031L253.36 29.8348L253.365 30.1597L253.367 30.4779L253.366 30.7891L253.364 31.0934L253.359 31.3907L253.353 31.6809L253.344 31.9641L253.334 32.24L253.322 32.5088L253.309 32.7702L253.294 33.0244L253.278 33.2712L253.26 33.5107L253.242 33.7427L253.222 33.9672L253.202 34.1843L253.181 34.3938L253.159 34.5958L253.137 34.7902L253.114 34.9769L253.091 35.1561L253.067 35.3276L253.043 35.4915L253.02 35.6477L252.996 35.7962L252.973 35.9369L252.95 36.07L252.927 36.1954L252.905 36.3131L252.884 36.423L252.863 36.5253L252.843 36.6198L252.824 36.7067L252.807 36.7858L252.79 36.8573L252.775 36.9211L252.761 36.9773L252.749 37.0259L252.738 37.0668L252.729 37.1002L252.722 37.126L252.717 37.1443L252.713 37.1551L252.712 37.1584L252.714 37.1543L252.717 37.1428L252.723 37.1239L252.732 37.0978L252.743 37.0644L252.758 37.0237L252.775 36.9759L252.795 36.921L252.818 36.859L252.844 36.79L252.873 36.7141L252.906 36.6312L252.942 36.5415L252.982 36.4451L253.026 36.3419L253.073 36.2321L253.124 36.1158L253.179 35.9929L253.237 35.8637L253.3 35.7281L253.367 35.5862L253.439 35.4381L253.514 35.2839L253.594 35.1237L253.679 34.9576L253.768 34.7856L253.862 34.6078L253.96 34.4244L254.064 34.2354L254.172 34.0409L254.285 33.841L254.403 33.6358L254.526 33.4254L254.654 33.21L254.787 32.9895L254.926 32.7641L255.07 32.534L255.219 32.2991L255.373 32.0597L255.534 31.8158L255.699 31.5676L255.87 31.3151L256.047 31.0585L256.23 30.7978L256.418 30.5333L256.612 30.265L256.812 29.993L257.017 29.7174L257.229 29.4384L257.446 29.1561L257.669 28.8706L257.899 28.582L258.134 28.2905L258.375 27.9962L258.622 27.6992L258.876 27.3996L259.135 27.0975L259.401 26.7931L259.673 26.4866L259.95 26.1779L260.234 25.8674L260.525 25.555L260.821 25.2409L261.123 24.9253L261.432 24.6083L261.747 24.29L262.068 23.9706L262.395 23.6501L262.729 23.3288L263.068 23.0066L263.414 22.6839L263.766 22.3606L264.124 22.037L264.488 21.7132L264.858 21.3893L265.234 21.0654L265.616 20.7417L266.005 20.4183L266.399 20.0953L266.799 19.7728L267.206 19.4511L267.618 19.1302L268.036 18.8103L268.46 18.4914L268.889 18.1738L269.325 17.8575L269.766 17.5427L270.213 17.2295L270.665 16.918L271.123 16.6084L271.587 16.3008L272.056 15.9953L272.53 15.6921L273.01 15.3912L273.495 15.0928L273.985 14.797L274.48 14.504L274.981 14.2138L275.487 13.9266L275.997 13.6425L276.512 13.3616L277.033 13.084L277.558 12.8099L278.087 12.5393L278.622 12.2725L279.16 12.0094L279.704 11.7502L280.251 11.495L280.803 11.244L281.359 10.9972L281.919 10.7547L282.483 10.5166L283.051 10.2831L283.622 10.0543L284.198 9.83017L284.777 9.6109L285.359 9.39658L285.945 9.18729L286.534 8.98313L287.127 8.78419L287.722 8.59058L288.321 8.40237L288.922 8.21964L289.527 8.04249L290.133 7.871L290.743 7.70525L291.355 7.54533L291.969 7.3913L292.585 7.24326L293.204 7.10126L293.824 6.96539L294.447 6.8357L295.071 6.71229L295.696 6.5952L296.324 6.4845L296.952 6.38026L297.582 6.28255L298.213 6.1914L298.845 6.10688L299.478 6.02905L300.112 5.95796L300.746 5.89366L301.381 5.8362L302.016 5.78561L302.651 5.74194L303.287 5.70525L303.922 5.67556L304.557 5.65292L305.193 5.63734L305.827 5.62888L306.461 5.62756L307.095 5.6334L307.727 5.64644L308.359 5.66669L308.99 5.69418L309.619 5.72892L310.247 5.77094L310.874 5.82024L311.499 5.87685L312.122 5.94075L312.743 6.01198L313.362 6.09052L313.98 6.17638L314.595 6.26958L315.207 6.37009L315.817 6.47791L316.424 6.59305L317.029 6.71549L317.63 6.84521L318.229 6.98222L318.824 7.12649L319.416 7.278L320.004 7.43673L320.589 7.60266L321.17 7.77576L321.748 7.95602L322.321 8.14339L322.89 8.33785L323.455 8.53937L324.015 8.74789L324.571 8.9634L325.123 9.18584L325.669 9.41518L326.211 9.65138L326.748 9.89437L327.28 10.1441L327.806 10.4006L328.327 10.6637L328.843 10.9334L329.353 11.2096L329.857 11.4923L330.355 11.7815L330.848 12.0769L331.334 12.3787L331.815 12.6867L332.289 13.0008L332.756 13.321L333.217 13.6473L333.672 13.9794L334.12 14.3174L334.561 14.6612L334.995 15.0107L335.422 15.3657L335.842 15.7263L336.255 16.0924L336.66 16.4638L337.058 16.8405L337.449 17.2223L337.832 17.6092L338.207 18.0011L338.575 18.3979L338.934 18.7995L339.286 19.2057L339.63 19.6166L339.966 20.032L340.293 20.4517L340.612 20.8757L340.923 21.3039L341.226 21.7362L341.52 22.1724L341.805 22.6125L342.082 23.0564L342.35 23.5038L342.61 23.9548L342.861 24.4092L343.103 24.8668L343.335 25.3277L343.559 25.7915L343.774 26.2584L343.98 26.728L344.177 27.2003L344.365 27.6752L344.543 28.1526L344.712 28.6322L344.872 29.1141L345.022 29.5981L345.163 30.084L345.295 30.5718L345.417 31.0612L345.53 31.5523L345.634 32.0447L345.727 32.5386L345.812 33.0336L345.886 33.5297L345.952 34.0267L346.007 34.5245L346.053 35.023L346.089 35.5221L346.116 36.0216L346.133 36.5214L346.141 37.0213L346.141 37.1584Z" stroke="#B072FF"/>
    <path fill-rule="evenodd" clip-rule="evenodd" d="M334.248 -9.59895L334.478 -9.16337L334.699 -8.72276L334.911 -8.27722L335.115 -7.82685L335.311 -7.3718L335.498 -6.91217L335.676 -6.44807L335.845 -5.97963L336.006 -5.50697L336.158 -5.03021L336.301 -4.54947L336.435 -4.06488L336.56 -3.57656L336.676 -3.08462L336.783 -2.58922L336.882 -2.09046L336.971 -1.58847L337.051 -1.08338L337.122 -0.57532L337.184 -0.0644131L337.237 0.4492L337.28 0.965404L337.315 1.48406L337.34 2.00504L337.356 2.5282L337.363 3.05344L337.361 3.5806L337.349 4.10956L337.328 4.64018L337.298 5.17234L337.259 5.70591L337.211 6.24075L337.153 6.77671L337.087 7.3137L337.011 7.85154L336.926 8.39014L336.832 8.92935L336.728 9.46903L336.616 10.0091L336.494 10.5493L336.364 11.0896L336.224 11.6299L336.076 12.17L335.918 12.7099L335.752 13.2492L335.577 13.788L335.393 14.3262L335.2 14.8635L334.998 15.3998L334.788 15.9351L334.569 16.4692L334.342 17.002L334.105 17.5333L333.861 18.063L333.608 18.5911L333.346 19.1173L333.076 19.6417L332.798 20.1639L332.512 20.684L332.218 21.2018L331.915 21.7172L331.605 22.2301L331.286 22.7403L330.96 23.2478L330.626 23.7524L330.285 24.254L329.935 24.7526L329.578 25.248L329.214 25.7401L328.843 26.2287L328.464 26.7139L328.078 27.1955L327.685 27.6733L327.284 28.1474L326.877 28.6175L326.464 29.0837L326.043 29.5457L325.616 30.0035L325.182 30.4571L324.742 30.9063L324.296 31.351L323.843 31.7912L323.384 32.2268L322.92 32.6576L322.449 33.0836L321.973 33.5048L321.491 33.921L321.003 34.3322L320.511 34.7383L320.012 35.1392L319.509 35.5348L319 35.9252L318.487 36.3101L317.969 36.6897L317.446 37.0637L316.918 37.4321L316.386 37.795L315.849 38.1521L315.309 38.5035L314.764 38.8492L314.215 39.189L313.663 39.5229L313.107 39.8509L312.547 40.173L311.983 40.489L311.417 40.799L310.847 41.1029L310.274 41.4007L309.698 41.6923L309.12 41.9777L308.539 42.257L307.955 42.53L307.369 42.7967L306.78 43.0572L306.19 43.3114L305.597 43.5593L305.003 43.8008L304.407 44.036L303.809 44.2649L303.21 44.4874L302.609 44.7035L302.008 44.9133L301.405 45.1167L300.801 45.3137L300.197 45.5044L299.592 45.6888L298.986 45.8667L298.38 46.0384L297.774 46.2038L297.168 46.3628L296.562 46.5156L295.956 46.662L295.35 46.8023L294.744 46.9363L294.14 47.0641L293.536 47.1858L292.932 47.3013L292.33 47.4108L291.729 47.5141L291.129 47.6114L290.53 47.7028L289.933 47.7882L289.337 47.8677L288.744 47.9413L288.152 48.0091L287.562 48.0711L286.974 48.1275L286.388 48.1782L285.805 48.2233L285.224 48.2628L284.645 48.2969L284.07 48.3255L283.497 48.3488L282.927 48.3668L282.36 48.3796L281.797 48.3872L281.236 48.3897L280.679 48.3873L280.126 48.3798L279.576 48.3676L279.03 48.3505L278.487 48.3288L277.949 48.3024L277.415 48.2716L276.884 48.2362L276.358 48.1965L275.837 48.1525L275.319 48.1044L274.807 48.0521L274.299 47.9959L273.795 47.9357L273.297 47.8717L272.803 47.8041L272.314 47.7328L271.83 47.6579L271.352 47.5797L270.878 47.4982L270.41 47.4135L269.948 47.3256L269.49 47.2348L269.039 47.141L268.593 47.0445L268.152 46.9454L267.718 46.8436L267.289 46.7394L266.866 46.6329L266.449 46.5241L266.038 46.4133L265.633 46.3004L265.234 46.1856L264.841 46.0691L264.455 45.951L264.074 45.8313L263.7 45.7102L263.333 45.5878L262.972 45.4642L262.617 45.3396L262.269 45.2141L261.927 45.0877L261.592 44.9607L261.263 44.8331L260.941 44.705L260.626 44.5766L260.318 44.448L260.016 44.3194L259.721 44.1907L259.432 44.0623L259.15 43.9341L258.876 43.8064L258.607 43.6792L258.346 43.5527L258.092 43.4269L257.844 43.3021L257.603 43.1782L257.369 43.0556L257.142 42.9342L256.922 42.8142L256.708 42.6957L256.502 42.5789L256.302 42.4638L256.109 42.3507L255.922 42.2395L255.743 42.1305L255.57 42.0236L255.404 41.9192L255.245 41.8172L255.092 41.7179L254.946 41.6212L254.807 41.5274L254.674 41.4365L254.548 41.3487L254.428 41.264L254.315 41.1827L254.208 41.1047L254.108 41.0302L254.014 40.9594L253.926 40.8923L253.845 40.829L253.77 40.7696L253.701 40.7143L253.639 40.6631L253.582 40.6162L253.532 40.5736L253.487 40.5355L253.448 40.5019L253.416 40.473L253.389 40.4488L253.367 40.4294L253.352 40.415L253.342 40.4056L253.337 40.4013L253.338 40.4022L253.344 40.4084L253.356 40.42L253.373 40.437L253.395 40.4596L253.422 40.4877L253.454 40.5216L253.491 40.5612L253.533 40.6067L253.579 40.6581L253.63 40.7155L253.686 40.779L253.746 40.8485L253.81 40.9243L253.879 41.0064L253.952 41.0947L254.029 41.1894L254.11 41.2906L254.195 41.3982L254.284 41.5124L254.376 41.6332L254.472 41.7607L254.572 41.8948L254.675 42.0357L254.781 42.1833L254.89 42.3378L255.003 42.4991L255.118 42.6674L255.236 42.8425L255.357 43.0246L255.481 43.2138L255.607 43.4099L255.736 43.6131L255.867 43.8233L256 44.0407L256.135 44.2651L256.272 44.4967L256.412 44.7355L256.552 44.9813L256.695 45.2344L256.839 45.4946L256.984 45.7619L257.131 46.0365L257.279 46.3182L257.427 46.6071L257.577 46.9032L257.728 47.2064L257.879 47.5168L258.031 47.8343L258.183 48.1589L258.336 48.4907L258.489 48.8295L258.642 49.1754L258.795 49.5284L258.948 49.8883L259.101 50.2553L259.254 50.6292L259.406 51.0101L259.557 51.3978L259.708 51.7924L259.858 52.1939L260.007 52.6021L260.155 53.017L260.301 53.4386L260.447 53.8669L260.591 54.3017L260.734 54.7431L260.875 55.1909L261.014 55.6452L261.152 56.1058L261.287 56.5727L261.421 57.0458L261.552 57.5252L261.682 58.0106L261.808 58.502L261.933 58.9994L262.055 59.5026L262.174 60.0117L262.29 60.5265L262.404 61.047L262.514 61.5729L262.622 62.1044L262.726 62.6413L262.827 63.1834L262.924 63.7308L263.019 64.2833L263.109 64.8408L263.196 65.4032L263.28 65.9705L263.359 66.5424L263.435 67.119L263.506 67.7002L263.574 68.2857L263.637 68.8756L263.696 69.4696L263.751 70.0678L263.801 70.6699L263.847 71.2759L263.888 71.8857L263.925 72.4991L263.957 73.116L263.984 73.7364L264.006 74.36L264.023 74.9867L264.036 75.6165L264.043 76.2492L264.045 76.8847L264.042 77.5229L264.034 78.1636L264.021 78.8067L264.002 79.4521L263.978 80.0996L263.948 80.7491L263.913 81.4005L263.873 82.0537L263.826 82.7085L263.774 83.3647L263.717 84.0223L263.654 84.681L263.585 85.3409L263.51 86.0016L263.429 86.6632L263.343 87.3253L263.251 87.988L263.153 88.6511L263.048 89.3143L262.938 89.9777L262.822 90.6409L262.7 91.304L262.572 91.9667L262.438 92.6289L262.298 93.2904L262.152 93.9512L261.999 94.6111L261.841 95.2698L261.677 95.9274L261.506 96.5836L261.33 97.2382L261.147 97.8912L260.958 98.5424L260.764 99.1917L260.563 99.8389L260.356 100.484L260.143 101.126L259.924 101.766L259.699 102.404L259.468 103.038L259.232 103.67L258.989 104.298L258.74 104.924L258.486 105.546L258.225 106.164L257.959 106.779L257.687 107.39L257.409 107.996L257.126 108.599L256.837 109.198L256.542 109.792L256.241 110.382L255.935 110.967L255.624 111.548L255.307 112.123L254.985 112.694L254.657 113.259L254.324 113.819L253.986 114.374L253.643 114.923L253.294 115.466L252.941 116.004L252.582 116.536L252.219 117.062L251.851 117.581L251.478 118.094L251.1 118.601L250.718 119.101L250.331 119.595L249.939 120.082L249.544 120.562L249.144 121.035L248.739 121.501L248.331 121.96L247.918 122.411L247.501 122.855L247.081 123.292L246.657 123.721L246.229 124.142L245.797 124.556L245.362 124.961L244.923 125.359L244.481 125.748L244.036 126.129L243.588 126.502L243.136 126.867L242.682 127.223L242.225 127.571L241.765 127.91L241.302 128.24L240.837 128.561L240.37 128.874L239.9 129.178L239.428 129.473L238.954 129.759L238.478 130.035L238 130.303L237.52 130.561L237.039 130.81L236.556 131.05L236.072 131.28L235.586 131.501L235.1 131.712L234.612 131.913L234.123 132.106L233.634 132.288L233.143 132.461L232.652 132.624L232.161 132.777L231.669 132.92L231.178 133.054L230.686 133.178L230.194 133.292L229.702 133.396L229.21 133.49L228.719 133.574L228.228 133.648L227.738 133.712L227.249 133.766L226.761 133.81L226.273 133.844L225.787 133.868L225.302 133.882L224.818 133.887L224.336 133.881L223.855 133.865L223.376 133.839L222.899 133.803L222.424 133.757L221.951 133.701L221.48 133.635L221.012 133.559L220.546 133.474L220.083 133.378L219.622 133.273L219.164 133.158L218.709 133.033L218.257 132.898L217.809 132.753L217.363 132.599L216.921 132.436L216.482 132.262L216.048 132.079L215.616 131.887L215.189 131.685L214.766 131.474L214.346 131.253L213.931 131.023L213.52 130.784L213.114 130.535L212.712 130.278L212.314 130.011L211.922 129.736L211.534 129.452L211.151 129.158L210.773 128.856L210.4 128.546L210.032 128.227L209.67 127.899L209.313 127.562L208.962 127.218L208.616 126.865L208.275 126.504L207.941 126.135L207.612 125.758L207.29 125.373L206.973 124.98L206.662 124.579L206.358 124.171L206.06 123.755L205.768 123.332L205.483 122.902L205.204 122.464L204.932 122.019L204.666 121.567L204.407 121.109L204.155 120.643L203.909 120.171L203.671 119.693L203.439 119.208L203.214 118.716L202.997 118.219L202.787 117.715L202.583 117.205L202.388 116.69L202.199 116.169L202.018 115.642L201.844 115.11L201.677 114.572L201.518 114.029L201.367 113.481L201.223 112.928L201.086 112.371L200.957 111.808L200.836 111.241L200.723 110.67L200.617 110.094L200.519 109.515L200.429 108.931L200.346 108.343L200.271 107.751L200.204 107.156L200.145 106.558L200.094 105.956L200.05 105.35L200.015 104.742L199.987 104.131L199.967 103.517L199.955 102.9L199.951 102.281L199.954 101.659L199.966 101.036L199.985 100.41L200.012 99.7817L200.047 99.1519L200.09 98.5205L200.141 97.8875L200.199 97.2531L200.265 96.6174L200.339 95.9806L200.42 95.3428L200.509 94.7041L200.606 94.0648L200.711 93.4248L200.822 92.7844L200.942 92.1437L201.069 91.5028L201.203 90.8618L201.345 90.221L201.495 89.5804L201.651 88.9401L201.815 88.3004L201.986 87.6613L202.164 87.0229L202.35 86.3854L202.542 85.749L202.742 85.1137L202.948 84.4797L203.161 83.847L203.381 83.216L203.608 82.5865L203.842 81.9589L204.082 81.3331L204.328 80.7094L204.581 80.0878L204.841 79.4685L205.107 78.8516L205.379 78.2371L205.657 77.6253L205.941 77.0162L206.231 76.4099L206.528 75.8066L206.829 75.2064L207.137 74.6093L207.45 74.0155L207.769 73.4251L208.093 72.8382L208.423 72.2549L208.758 71.6752L209.098 71.0994L209.443 70.5274L209.793 69.9594L210.147 69.3955L210.507 68.8358L210.871 68.2803L211.24 67.7292L211.613 67.1825L211.99 66.6403L212.372 66.1027L212.757 65.5698L213.147 65.0417L213.541 64.5184L213.938 64L214.339 63.4866L214.743 62.9783L215.151 62.4751L215.562 61.9771L215.976 61.4843L216.393 60.9969L216.813 60.5149L217.236 60.0383L217.661 59.5672L218.089 59.1017L218.52 58.6418L218.953 58.1875L219.387 57.739L219.824 57.2962L220.263 56.8592L220.704 56.428L221.146 56.0028L221.59 55.5834L222.035 55.17L222.481 54.7626L222.929 54.3612L223.378 53.9658L223.827 53.5765L224.277 53.1933L224.728 52.8162L225.179 52.4453L225.631 52.0805L226.083 51.7218L226.535 51.3694L226.987 51.0231L227.438 50.683L227.89 50.3492L228.341 50.0215L228.791 49.7L229.241 49.3848L229.69 49.0757L230.138 48.7729L230.585 48.4762L231.031 48.1857L231.475 47.9013L231.918 47.6232L232.36 47.3511L232.8 47.0852L233.237 46.8253L233.673 46.5715L234.107 46.3238L234.539 46.0821L234.968 45.8463L235.395 45.6166L235.819 45.3927L236.241 45.1747L236.66 44.9626L237.076 44.7562L237.488 44.5557L237.898 44.3608L238.304 44.1716L238.707 43.988L239.107 43.81L239.503 43.6375L239.895 43.4705L240.283 43.3089L240.668 43.1526L241.048 43.0016L241.424 42.8558L241.796 42.7152L242.163 42.5797L242.526 42.4492L242.885 42.3236L243.239 42.203L243.588 42.0871L243.932 41.976L244.271 41.8695L244.605 41.7676L244.934 41.6702L245.258 41.5773L245.576 41.4886L245.889 41.4043L246.197 41.324L246.499 41.2479L246.795 41.1758L247.086 41.1075L247.37 41.0431L247.649 40.9823L247.922 40.9252L248.189 40.8716L248.449 40.8215L248.704 40.7746L248.952 40.731L249.194 40.6905L249.43 40.6531L249.659 40.6185L249.882 40.5868L250.098 40.5578L250.307 40.5315L250.51 40.5076L250.706 40.4861L250.895 40.4669L251.078 40.4499L251.254 40.4349L251.423 40.4219L251.584 40.4108L251.739 40.4014L251.887 40.3936L252.028 40.3873L252.162 40.3824L252.288 40.3788L252.408 40.3764L252.52 40.375L252.626 40.3745L252.724 40.3749L252.814 40.376L252.898 40.3776L252.974 40.3798L253.043 40.3822L253.105 40.3849L253.159 40.3878L253.207 40.3906L253.247 40.3933L253.279 40.3958L253.305 40.3979L253.323 40.3996L253.333 40.4007L253.337 40.4011L253.333 40.4006L253.322 40.3992L253.304 40.3968L253.278 40.3932L253.246 40.3883L253.206 40.3821L253.159 40.3743L253.105 40.3648L253.044 40.3537L252.975 40.3407L252.9 40.3257L252.818 40.3087L252.729 40.2894L252.632 40.2679L252.529 40.244L252.42 40.2175L252.303 40.1884L252.179 40.1566L252.049 40.122L251.912 40.0844L251.769 40.0437L251.619 39.9999L251.463 39.9529L251.3 39.9025L251.131 39.8487L250.955 39.7913L250.774 39.7302L250.586 39.6654L250.392 39.5968L250.192 39.5242L249.986 39.4476L249.774 39.3669L249.556 39.282L249.333 39.1928L249.104 39.0992L248.869 39.0011L248.629 38.8985L248.384 38.7912L248.133 38.6793L247.877 38.5625L247.616 38.4409L247.35 38.3143L247.079 38.1827L246.803 38.046L246.522 37.9042L246.237 37.7571L245.947 37.6047L245.652 37.447L245.354 37.2838L245.05 37.1151L244.743 36.9409L244.432 36.7611L244.117 36.5756L243.798 36.3844L243.475 36.1875L243.149 35.9847L242.819 35.776L242.486 35.5615L242.149 35.341L241.809 35.1144L241.467 34.8819L241.121 34.6433L240.772 34.3986L240.421 34.1477L240.067 33.8907L239.711 33.6274L239.353 33.358L238.992 33.0823L238.629 32.8003L238.264 32.512L237.897 32.2174L237.529 31.9165L237.159 31.6092L236.787 31.2956L236.414 30.9756L236.04 30.6492L235.665 30.3165L235.288 29.9774L234.911 29.632L234.533 29.2801L234.155 28.9219L233.776 28.5574L233.397 28.1864L233.017 27.8092L232.638 27.4256L232.258 27.0357L231.879 26.6396L231.499 26.2371L231.121 25.8284L230.743 25.4135L230.365 24.9924L229.988 24.5651L229.612 24.1318L229.238 23.6923L228.864 23.2467L228.492 22.7952L228.121 22.3376L227.752 21.8741L227.384 21.4047L227.018 20.9295L226.654 20.4485L226.292 19.9618L225.933 19.4693L225.575 18.9713L225.22 18.4676L224.868 17.9585L224.518 17.4439L224.171 16.9239L223.826 16.3986L223.485 15.8681L223.147 15.3324L222.812 14.7916L222.48 14.2458L222.152 13.695L221.828 13.1393L221.507 12.5789L221.19 12.0138L220.877 11.444L220.567 10.8697L220.262 10.291L219.961 9.70788L219.665 9.12053L219.372 8.52902L219.085 7.93343L218.802 7.33387L218.523 6.73044L218.25 6.12323L217.981 5.51236L217.718 4.89792L217.459 4.28003L217.206 3.65878L216.958 3.03429L216.715 2.40666L216.478 1.77602L216.246 1.14248L216.02 0.506132L215.799 -0.132881L215.584 -0.774453L215.376 -1.41846L215.173 -2.06479L214.976 -2.71332L214.785 -3.36392L214.6 -4.01647L214.422 -4.67084L214.249 -5.32691L214.084 -5.98456L213.924 -6.64365L213.771 -7.30405L213.625 -7.96564L213.485 -8.62828L213.351 -9.29184L213.225 -9.95619L213.105 -10.6212L212.992 -11.2867L212.886 -11.9526L212.786 -12.6188L212.694 -13.2851L212.608 -13.9513L212.53 -14.6174L212.459 -15.2832L212.394 -15.9485L212.337 -16.6133L212.287 -17.2773L212.244 -17.9405L212.208 -18.6027L212.18 -19.2638L212.158 -19.9236L212.144 -20.5819L212.138 -21.2387L212.138 -21.8938L212.146 -22.5471L212.161 -23.1983L212.183 -23.8475L212.213 -24.4943L212.25 -25.1388L212.295 -25.7807L212.347 -26.4199L212.406 -27.0563L212.472 -27.6897L212.546 -28.32L212.627 -28.947L212.715 -29.5707L212.811 -30.1908L212.914 -30.8072L213.024 -31.4199L213.142 -32.0285L213.266 -32.6331L213.398 -33.2335L213.537 -33.8295L213.683 -34.421L213.837 -35.0079L213.997 -35.5901L214.164 -36.1673L214.339 -36.7395L214.52 -37.3066L214.708 -37.8684L214.904 -38.4247L215.106 -38.9755L215.314 -39.5207L215.53 -40.06L215.752 -40.5934L215.981 -41.1208L216.216 -41.642L216.458 -42.1569L216.707 -42.6654L216.962 -43.1673L217.223 -43.6626L217.491 -44.1512L217.764 -44.6328L218.044 -45.1075L218.33 -45.5751L218.622 -46.0354L218.92 -46.4885L219.224 -46.9341L219.533 -47.3721L219.849 -47.8025L220.17 -48.2252L220.496 -48.64L220.828 -49.0469L221.165 -49.4458L221.508 -49.8365L221.856 -50.2189L222.209 -50.5931L222.567 -50.9588L222.93 -51.3161L223.298 -51.6647L223.67 -52.0047L224.047 -52.336L224.429 -52.6584L224.815 -52.9719L225.206 -53.2764L225.601 -53.5718L226 -53.8581L226.403 -54.1352L226.81 -54.4031L227.221 -54.6616L227.635 -54.9107L228.054 -55.1503L228.475 -55.3805L228.901 -55.601L229.329 -55.8119L229.761 -56.0132L230.195 -56.2047L230.633 -56.3864L231.074 -56.5583L231.517 -56.7203L231.963 -56.8724L232.411 -57.0146L232.862 -57.1468L233.315 -57.2689L233.771 -57.381L234.228 -57.4831L234.687 -57.575L235.148 -57.6568L235.611 -57.7284L236.075 -57.7899L236.541 -57.8412L237.008 -57.8823L237.476 -57.9132L237.945 -57.9338L238.416 -57.9443L238.887 -57.9445L239.359 -57.9344L239.831 -57.9141L240.304 -57.8836L240.777 -57.8429L241.251 -57.7919L241.724 -57.7307L242.198 -57.6593L242.671 -57.5778L243.145 -57.4861L243.617 -57.3842L244.09 -57.2722L244.562 -57.1501L245.032 -57.0179L245.503 -56.8757L245.972 -56.7235L246.44 -56.5613L246.907 -56.3892L247.372 -56.2072L247.836 -56.0153L248.299 -55.8136L248.76 -55.6021L249.219 -55.3809L249.676 -55.15L250.131 -54.9095L250.584 -54.6595L251.035 -54.3999L251.483 -54.1309L251.929 -53.8525L252.372 -53.5649L252.813 -53.2679L253.251 -52.9618L253.686 -52.6465L254.118 -52.3222L254.546 -51.989L254.972 -51.6469L255.394 -51.2959L255.813 -50.9362L256.229 -50.5679L256.64 -50.191L257.049 -49.8057L257.453 -49.412L257.853 -49.01L258.25 -48.5997L258.642 -48.1814L259.03 -47.7551L259.414 -47.3209L259.793 -46.8788L260.168 -46.4291L260.539 -45.9717L260.905 -45.5069L261.266 -45.0346L261.623 -44.5551L261.974 -44.0684L262.321 -43.5747L262.663 -43.074L262.999 -42.5665L263.331 -42.0523L263.657 -41.5315L263.978 -41.0042L264.294 -40.4705L264.604 -39.9306L264.909 -39.3846L265.208 -38.8326L265.502 -38.2748L265.79 -37.7112L266.072 -37.142L266.349 -36.5674L266.62 -35.9874L266.885 -35.4022L267.144 -34.8119L267.397 -34.2167L267.644 -33.6166L267.885 -33.0119L268.12 -32.4026L268.349 -31.789L268.572 -31.171L268.789 -30.549L268.999 -29.9229L269.203 -29.293L269.401 -28.6594L269.593 -28.0222L269.778 -27.3816L269.957 -26.7377L270.13 -26.0907L270.296 -25.4407L270.456 -24.7878L270.61 -24.1322L270.757 -23.474L270.898 -22.8134L271.032 -22.1505L271.16 -21.4855L271.282 -20.8185L271.397 -20.1496L271.505 -19.4791L271.608 -18.807L271.704 -18.1334L271.793 -17.4586L271.876 -16.7827L271.953 -16.1058L272.024 -15.4281L272.088 -14.7496L272.146 -14.0707L272.197 -13.3913L272.243 -12.7116L272.282 -12.0318L272.314 -11.3521L272.341 -10.6725L272.362 -9.9932L272.376 -9.31435L272.384 -8.63608L272.387 -7.95853L272.383 -7.28184L272.374 -6.60615L272.358 -5.93159L272.337 -5.25829L272.309 -4.58641L272.277 -3.91606L272.238 -3.24738L272.194 -2.5805L272.144 -1.91556L272.088 -1.25268L272.027 -0.591999L271.961 0.0663679L271.889 0.722279L271.812 1.37562L271.73 2.02627L271.643 2.67409L271.551 3.31896L271.453 3.96078L271.351 4.59941L271.244 5.23473L271.132 5.86665L271.015 6.49503L270.894 7.11977L270.768 7.74075L270.638 8.35786L270.503 8.971L270.364 9.58005L270.221 10.1849L270.074 10.7855L269.923 11.3817L269.768 11.9733L269.609 12.5604L269.446 13.1428L269.28 13.7204L269.11 14.2932L268.937 14.8609L268.76 15.4236L268.58 15.9812L268.397 16.5335L268.211 17.0805L268.022 17.6221L267.831 18.1583L267.636 18.6889L267.439 19.2138L267.24 19.7331L267.038 20.2465L266.833 20.7541L266.627 21.2558L266.419 21.7516L266.208 22.2413L265.996 22.7249L265.782 23.2023L265.567 23.6735L265.35 24.1384L265.132 24.5971L264.912 25.0493L264.691 25.4951L264.47 25.9345L264.247 26.3673L264.024 26.7936L263.8 27.2133L263.575 27.6264L263.35 28.0328L263.125 28.4326L262.899 28.8256L262.674 29.2118L262.448 29.5913L262.223 29.964L261.998 30.3299L261.773 30.689L261.549 31.0412L261.326 31.3865L261.103 31.725L260.882 32.0566L260.661 32.3813L260.441 32.6991L260.223 33.01L260.006 33.3141L259.791 33.6112L259.577 33.9015L259.365 34.1849L259.155 34.4614L258.946 34.731L258.74 34.9939L258.536 35.2499L258.335 35.4991L258.135 35.7415L257.939 35.9772L257.745 36.2062L257.553 36.4284L257.365 36.644L257.18 36.8529L256.997 37.0552L256.818 37.251L256.643 37.4402L256.47 37.6229L256.302 37.7992L256.136 37.9691L255.975 38.1327L255.817 38.2899L255.664 38.4409L255.514 38.5857L255.369 38.7244L255.228 38.8569L255.091 38.9835L254.958 39.104L254.83 39.2187L254.707 39.3276L254.589 39.4307L254.475 39.528L254.366 39.6198L254.262 39.706L254.164 39.7867L254.07 39.862L253.982 39.932L253.899 39.9968L253.821 40.0564L253.749 40.1109L253.682 40.1604L253.622 40.205L253.566 40.2447L253.517 40.2798L253.473 40.3102L253.436 40.336L253.404 40.3574L253.378 40.3744L253.359 40.3872L253.345 40.3957L253.338 40.4003L253.337 40.4008L253.343 40.3975L253.355 40.3904L253.373 40.3796L253.398 40.3653L253.429 40.3475L253.467 40.3264L253.512 40.3021L253.563 40.2746L253.621 40.2441L253.685 40.2107L253.757 40.1745L253.835 40.1356L253.92 40.0941L254.012 40.0502L254.111 40.0039L254.217 39.9554L254.33 39.9048L254.45 39.8522L254.576 39.7978L254.71 39.7415L254.851 39.6837L254.999 39.6242L255.153 39.5634L255.315 39.5013L255.484 39.4381L255.66 39.3738L255.843 39.3085L256.033 39.2425L256.23 39.1757L256.434 39.1084L256.645 39.0407L256.863 38.9726L257.088 38.9043L257.321 38.836L257.56 38.7677L257.806 38.6995L258.059 38.6316L258.318 38.5641L258.585 38.4971L258.859 38.4307L259.139 38.3651L259.426 38.3004L259.72 38.2367L260.021 38.174L260.328 38.1126L260.642 38.0525L260.963 37.9939L261.29 37.9369L261.623 37.8815L261.963 37.828L262.31 37.7763L262.662 37.7267L263.021 37.6792L263.387 37.634L263.758 37.5911L264.135 37.5507L264.519 37.5129L264.908 37.4777L265.304 37.4454L265.705 37.4159L266.112 37.3895L266.525 37.3661L266.943 37.346L267.367 37.3291L267.796 37.3157L268.231 37.3057L268.671 37.2993L269.116 37.2967L269.566 37.2978L270.021 37.3028L270.481 37.3118L270.946 37.3248L271.416 37.342L271.891 37.3634L272.37 37.3892L272.853 37.4193L273.341 37.454L273.833 37.4932L274.329 37.537L274.83 37.5856L275.334 37.6389L275.842 37.6971L276.354 37.7603L276.869 37.8285L277.388 37.9017L277.91 37.9801L278.436 38.0638L278.965 38.1526L279.497 38.2469L280.032 38.3465L280.569 38.4515L281.109 38.5621L281.652 38.6782L282.198 38.8L282.745 38.9273L283.295 39.0604L283.847 39.1993L284.401 39.3439L284.957 39.4943L285.515 39.6507L286.074 39.8129L286.634 39.9811L287.196 40.1552L287.759 40.3353L288.324 40.5215L288.889 40.7137L289.455 40.912L290.021 41.1164L290.588 41.3269L291.156 41.5435L291.724 41.7663L292.292 41.9952L292.86 42.2303L293.428 42.4716L293.995 42.7191L294.562 42.9727L295.129 43.2326L295.695 43.4986L296.26 43.7708L296.825 44.0492L297.388 44.3337L297.95 44.6244L298.511 44.9213L299.07 45.2242L299.628 45.5333L300.184 45.8485L300.738 46.1697L301.29 46.497L301.84 46.8303L302.388 47.1696L302.933 47.5149L303.476 47.8661L304.016 48.2231L304.553 48.5861L305.088 48.9548L305.619 49.3293L306.147 49.7096L306.672 50.0955L307.193 50.4871L307.711 50.8842L308.225 51.2869L308.736 51.6951L309.242 52.1086L309.744 52.5276L310.243 52.9518L310.736 53.3813L311.226 53.816L311.711 54.2557L312.191 54.7005L312.666 55.1503L313.137 55.605L313.602 56.0644L314.063 56.5287L314.518 56.9976L314.968 57.471L315.412 57.949L315.851 58.4314L316.284 58.9181L316.711 59.4091L317.132 59.9042L317.548 60.4034L317.957 60.9065L318.36 61.4136L318.757 61.9244L319.147 62.4389L319.531 62.957L319.908 63.4785L320.279 64.0035L320.643 64.5317L321 65.0631L321.35 65.5976L321.693 66.135L322.028 66.6752L322.357 67.2182L322.678 67.7638L322.992 68.312L323.299 68.8625L323.598 69.4153L323.89 69.9703L324.173 70.5273L324.449 71.0863L324.718 71.647L324.978 72.2095L325.231 72.7735L325.475 73.3389L325.712 73.9057L325.94 74.4736L326.16 75.0427L326.372 75.6126L326.576 76.1834L326.771 76.7548L326.958 77.3268L327.137 77.8993L327.307 78.472L327.469 79.0449L327.622 79.6178L327.767 80.1907L327.903 80.7633L328.03 81.3355L328.149 81.9073L328.259 82.4784L328.361 83.0488L328.454 83.6182L328.538 84.1867L328.613 84.754L328.679 85.3199L328.737 85.8845L328.786 86.4475L328.826 87.0088L328.857 87.5682L328.879 88.1257L328.893 88.6811L328.897 89.2343L328.893 89.7851L328.88 90.3334L328.859 90.879L328.828 91.4219L328.789 91.9619L328.741 92.4988L328.684 93.0326L328.618 93.5631L328.544 94.0902L328.461 94.6137L328.369 95.1335L328.268 95.6496L328.159 96.1617L328.042 96.6697L327.915 97.1735L327.781 97.673L327.637 98.168L327.486 98.6585L327.326 99.1443L327.157 99.6253L326.98 100.101L326.795 100.572L326.602 101.038L326.401 101.499L326.191 101.954L325.974 102.403L325.748 102.847L325.514 103.286L325.273 103.718L325.024 104.144L324.767 104.565L324.502 104.979L324.23 105.386L323.95 105.788L323.663 106.183L323.368 106.571L323.066 106.953L322.757 107.327L322.44 107.695L322.117 108.056L321.786 108.41L321.449 108.756L321.105 109.096L320.754 109.428L320.396 109.752L320.032 110.069L319.662 110.378L319.285 110.68L318.902 110.974L318.512 111.26L318.117 111.538L317.715 111.808L317.308 112.07L316.895 112.324L316.476 112.569L316.052 112.807L315.622 113.036L315.187 113.256L314.747 113.468L314.302 113.672L313.851 113.867L313.396 114.054L312.936 114.231L312.471 114.4L312.002 114.56L311.528 114.712L311.05 114.854L310.568 114.988L310.082 115.113L309.591 115.228L309.097 115.335L308.599 115.433L308.098 115.522L307.593 115.601L307.084 115.672L306.573 115.733L306.058 115.785L305.541 115.828L305.02 115.862L304.497 115.886L303.971 115.902L303.442 115.908L302.912 115.905L302.379 115.893L301.844 115.871L301.306 115.841L300.768 115.801L300.227 115.752L299.685 115.694L299.141 115.626L298.596 115.55L298.049 115.464L297.502 115.37L296.953 115.266L296.404 115.153L295.854 115.031L295.304 114.9L294.752 114.76L294.201 114.611L293.649 114.453L293.098 114.286L292.546 114.111L291.994 113.926L291.443 113.733L290.892 113.531L290.342 113.321L289.792 113.102L289.243 112.874L288.695 112.638L288.148 112.394L287.602 112.141L287.057 111.88L286.513 111.611L285.971 111.333L285.431 111.048L284.892 110.754L284.355 110.452L283.82 110.143L283.287 109.826L282.756 109.501L282.227 109.168L281.701 108.828L281.177 108.48L280.656 108.125L280.137 107.763L279.621 107.394L279.108 107.017L278.598 106.634L278.091 106.243L277.587 105.846L277.087 105.442L276.589 105.031L276.096 104.614L275.605 104.191L275.119 103.761L274.636 103.325L274.156 102.883L273.681 102.435L273.21 101.982L272.742 101.522L272.279 101.057L271.82 100.587L271.365 100.111L270.915 99.6294L270.469 99.1431L270.028 98.6518L269.591 98.1556L269.159 97.6547L268.731 97.1492L268.308 96.6391L267.89 96.1247L267.477 95.6061L267.069 95.0833L266.666 94.5566L266.268 94.026L265.875 93.4917L265.487 92.9538L265.104 92.4125L264.727 91.868L264.354 91.3202L263.988 90.7694L263.626 90.2157L263.27 89.6593L262.92 89.1003L262.575 88.5388L262.235 87.9749L261.901 87.4089L261.572 86.8408L261.25 86.2709L260.932 85.6991L260.621 85.1258L260.315 84.5509L260.014 83.9748L259.72 83.3974L259.431 82.819L259.148 82.2397L258.87 81.6596L258.599 81.0789L258.333 80.4977L258.073 79.9162L257.818 79.3344L257.569 78.7527L257.326 78.171L257.089 77.5896L256.858 77.0085L256.632 76.428L256.412 75.8481L256.197 75.269L255.988 74.6909L255.785 74.1139L255.588 73.538L255.396 72.9635L255.21 72.3906L255.029 71.8192L254.854 71.2497L254.684 70.682L254.52 70.1164L254.361 69.5529L254.207 68.9918L254.059 68.4331L253.917 67.877L253.779 67.3236L253.647 66.773L253.52 66.2253L253.398 65.6808L253.281 65.1395L253.169 64.6015L253.062 64.067L252.96 63.5361L252.863 63.0089L252.771 62.4855L252.683 61.9661L252.601 61.4507L252.522 60.9396L252.449 60.4327L252.38 59.9302L252.315 59.4322L252.254 58.9389L252.198 58.4503L252.146 57.9666L252.098 57.4878L252.055 57.0141L252.015 56.5455L251.979 56.0822L251.947 55.6243L251.919 55.1718L251.894 54.7248L251.873 54.2835L251.855 53.848L251.841 53.4182L251.83 52.9944L251.822 52.5765L251.817 52.1648L251.815 51.7592L251.816 51.3598L251.821 50.9667L251.827 50.5801L251.837 50.1999L251.849 49.8263L251.863 49.4592L251.88 49.0988L251.899 48.7452L251.92 48.3984L251.943 48.0584L251.968 47.7254L251.995 47.3993L252.024 47.0803L252.054 46.7683L252.086 46.4635L252.119 46.1659L252.153 45.8755L252.189 45.5923L252.226 45.3165L252.263 45.048L252.302 44.7869L252.341 44.5332L252.381 44.2869L252.422 44.0482L252.462 43.8169L252.504 43.5932L252.545 43.377L252.587 43.1684L252.628 42.9673L252.669 42.7739L252.711 42.588L252.751 42.4098L252.792 42.2392L252.831 42.0763L252.87 41.921L252.909 41.7733L252.946 41.6332L252.982 41.5008L253.017 41.376L253.051 41.2588L253.084 41.1493L253.115 41.0473L253.144 40.9529L253.172 40.866L253.198 40.7867L253.222 40.7148L253.244 40.6505L253.264 40.5936L253.282 40.5442L253.298 40.5021L253.311 40.4674L253.321 40.44L253.329 40.4199L253.334 40.407L253.337 40.4014L253.336 40.4028L253.332 40.4114L253.326 40.4271L253.316 40.4497L253.302 40.4793L253.285 40.5157L253.265 40.5591L253.241 40.6091L253.214 40.6659L253.182 40.7293L253.147 40.7993L253.107 40.8758L253.064 40.9587L253.016 41.048L252.965 41.1436L252.909 41.2454L252.848 41.3533L252.783 41.4673L252.713 41.5872L252.639 41.713L252.56 41.8446L252.477 41.982L252.388 42.1249L252.294 42.2734L252.196 42.4273L252.092 42.5866L251.983 42.7511L251.869 42.9207L251.75 43.0954L251.626 43.2751L251.495 43.4596L251.36 43.6488L251.219 43.8427L251.072 44.0411L250.92 44.244L250.762 44.4512L250.599 44.6625L250.429 44.878L250.254 45.0975L250.073 45.3208L249.886 45.5479L249.694 45.7786L249.495 46.0128L249.29 46.2505L249.079 46.4914L248.862 46.7355L248.639 46.9826L248.41 47.2327L248.174 47.4856L247.933 47.7411L247.685 47.9992L247.431 48.2597L247.17 48.5226L246.904 48.7876L246.631 49.0546L246.352 49.3236L246.067 49.5944L245.775 49.8668L245.477 50.1408L245.173 50.4162L244.862 50.6929L244.545 50.9707L244.222 51.2496L243.893 51.5293L243.557 51.8098L243.215 52.091L242.866 52.3726L242.512 52.6546L242.151 52.9369L241.784 53.2192L241.411 53.5016L241.032 53.7838L240.646 54.0657L240.254 54.3472L239.857 54.6281L239.453 54.9084L239.043 55.1879L238.628 55.4664L238.206 55.7439L237.778 56.0202L237.345 56.2952L236.906 56.5688L236.461 56.8408L236.01 57.1111L235.553 57.3796L235.091 57.6461L234.624 57.9106L234.151 58.1728L233.672 58.4328L233.188 58.6903L232.699 58.9453L232.205 59.1976L231.705 59.4471L231.2 59.6937L230.691 59.9373L230.176 60.1777L229.656 60.4149L229.132 60.6487L228.602 60.879L228.069 61.1057L227.53 61.3287L226.987 61.5478L226.44 61.7631L225.888 61.9743L225.332 62.1814L224.772 62.3843L224.208 62.5828L223.64 62.7769L223.068 62.9664L222.492 63.1513L221.913 63.3314L221.33 63.5068L220.743 63.6772L220.154 63.8426L219.561 64.0029L218.964 64.158L218.365 64.3078L217.763 64.4522L217.158 64.5912L216.55 64.7247L215.94 64.8526L215.327 64.9748L214.712 65.0913L214.095 65.2019L213.475 65.3066L212.853 65.4053L212.23 65.498L211.605 65.5846L210.978 65.665L210.349 65.7392L209.719 65.8071L209.088 65.8686L208.456 65.9238L207.822 65.9725L207.188 66.0146L206.553 66.0502L205.917 66.0793L205.281 66.1016L204.644 66.1173L204.007 66.1262L203.37 66.1284L202.733 66.1237L202.096 66.1122L201.459 66.0938L200.823 66.0686L200.187 66.0364L199.552 65.9972L198.918 65.951L198.284 65.8979L197.652 65.8377L197.021 65.7705L196.391 65.6963L195.763 65.615L195.136 65.5266L194.511 65.4312L193.887 65.3287L193.266 65.2191L192.647 65.1024L192.03 64.9786L191.416 64.8477L190.804 64.7098L190.195 64.5649L189.588 64.4128L188.985 64.2538L188.384 64.0877L187.787 63.9146L187.193 63.7346L186.603 63.5476L186.016 63.3537L185.433 63.1528L184.854 62.9451L184.278 62.7306L183.707 62.5092L183.14 62.2811L182.578 62.0462L182.02 61.8047L181.466 61.5565L180.918 61.3017L180.374 61.0403L179.835 60.7725L179.301 60.4982L178.773 60.2174L178.25 59.9304L177.732 59.637L177.22 59.3374L176.714 59.0317L176.213 58.7198L175.718 58.4019L175.23 58.0781L174.748 57.7483L174.271 57.4127L173.802 57.0714L173.339 56.7244L172.882 56.3718L172.432 56.0136L171.989 55.65L171.553 55.2811L171.123 54.9068L170.701 54.5274L170.287 54.1429L169.879 53.7534L169.479 53.3589L169.086 52.9597L168.701 52.5557L168.324 52.147L167.954 51.7338L167.592 51.3162L167.238 50.8942L166.892 50.468L166.554 50.0377L166.225 49.6033L165.903 49.165L165.59 48.7229L165.286 48.2771L164.989 47.8277L164.702 47.3748L164.423 46.9185L164.152 46.459L163.891 45.9963L163.638 45.5305L163.394 45.0619L163.159 44.5905L162.932 44.1163L162.715 43.6397L162.507 43.1605L162.308 42.6791L162.118 42.1955L161.938 41.7097L161.766 41.2221L161.604 40.7326L161.451 40.2414L161.308 39.7486L161.174 39.2544L161.049 38.7589L160.934 38.2621L160.829 37.7643L160.732 37.2656L160.646 36.766L160.569 36.2658L160.501 35.765L160.443 35.2637L160.395 34.7622L160.356 34.2605L160.327 33.7587L160.307 33.2571L160.297 32.7557L160.297 32.2546L160.306 31.754L160.325 31.254L160.354 30.7547L160.392 30.2564L160.439 29.759L160.497 29.2627L160.563 28.7677L160.64 28.2741L160.726 27.782L160.821 27.2915L160.926 26.8028L161.04 26.316L161.164 25.8313L161.297 25.3486L161.44 24.8683L161.592 24.3903L161.753 23.9148L161.923 23.442L162.103 22.972L162.292 22.5048L162.489 22.0407L162.696 21.5796L162.912 21.1219L163.137 20.6675L163.371 20.2165L163.614 19.7692L163.866 19.3256L164.126 18.8858L164.395 18.4499L164.672 18.0181L164.958 17.5904L165.253 17.1671L165.556 16.7481L165.867 16.3336L166.187 15.9236L166.515 15.5184L166.851 15.118L167.195 14.7224L167.547 14.3319L167.906 13.9465L168.274 13.5662L168.649 13.1913L169.032 12.8217L169.422 12.4576L169.82 12.0991L170.225 11.7462L170.637 11.399L171.057 11.0577L171.483 10.7223L171.917 10.3929L172.357 10.0695L172.804 9.75233L173.257 9.44135L173.718 9.13668L174.184 8.83837L174.657 8.54651L175.136 8.26116L175.621 7.98239L176.112 7.71026L176.609 7.44483L177.112 7.18617L177.62 6.93434L178.134 6.68939L178.653 6.45137L179.178 6.22034L179.707 5.99635L180.242 5.77944L180.782 5.56966L181.326 5.36706L181.875 5.17168L182.429 4.98356L182.987 4.80273L183.549 4.62923L184.116 4.46308L184.686 4.30434L185.261 4.15301L185.839 4.00913L186.421 3.87271L187.006 3.74379L187.595 3.62239L188.187 3.5085L188.782 3.40217L189.38 3.30338L189.981 3.21216L190.585 3.12851L191.191 3.05244L191.8 2.98394L192.411 2.92303L193.024 2.8697L193.64 2.82395L194.257 2.78576L194.876 2.75513L195.497 2.73205L196.12 2.71651L196.743 2.70849L197.368 2.70797L197.995 2.71494L198.622 2.72936L199.25 2.75122L199.879 2.78049L200.508 2.81714L201.138 2.86113L201.768 2.91244L202.398 2.97103L203.029 3.03685L203.66 3.10988L204.29 3.19006L204.92 3.27735L205.549 3.3717L206.178 3.47307L206.807 3.58141L207.434 3.69665L208.061 3.81875L208.687 3.94764L209.311 4.08327L209.934 4.22557L210.556 4.37448L211.176 4.52993L211.794 4.69186L212.411 4.86019L213.026 5.03486L213.638 5.21578L214.249 5.40289L214.857 5.59611L215.463 5.79534L216.067 6.00052L216.668 6.21156L217.266 6.42837L217.862 6.65087L218.454 6.87897L219.044 7.11257L219.63 7.35159L220.213 7.59593L220.793 7.84549L221.37 8.10018L221.943 8.3599L222.512 8.62455L223.078 8.89402L223.64 9.16821L224.198 9.44702L224.752 9.73034L225.302 10.0181L225.847 10.3101L226.389 10.6063L226.926 10.9066L227.459 11.2108L227.987 11.5188L228.511 11.8306L229.03 12.146L229.544 12.4649L230.054 12.7872L230.559 13.1127L231.059 13.4414L231.553 13.7731L232.043 14.1076L232.528 14.4449L233.007 14.7849L233.481 15.1273L233.95 15.4722L234.414 15.8193L234.872 16.1685L235.325 16.5198L235.772 16.8729L236.213 17.2277L236.649 17.5842L237.08 17.9421L237.504 18.3014L237.923 18.6619L238.336 19.0234L238.744 19.386L239.145 19.7493L239.541 20.1134L239.931 20.4779L240.314 20.8429L240.692 21.2082L241.064 21.5736L241.43 21.9391L241.79 22.3044L242.144 22.6695L242.492 23.0341L242.834 23.3983L243.17 23.7618L243.5 24.1245L243.824 24.4862L244.141 24.847L244.453 25.2065L244.759 25.5647L245.058 25.9214L245.352 26.2766L245.639 26.63L245.92 26.9816L246.196 27.3312L246.465 27.6786L246.729 28.0239L246.986 28.3667L247.237 28.7071L247.483 29.0448L247.723 29.3798L247.956 29.7119L248.184 30.041L248.406 30.367L248.623 30.6897L248.833 31.0091L249.038 31.3249L249.238 31.6372L249.431 31.9457L249.619 32.2504L249.802 32.551L249.978 32.8476L250.15 33.1401L250.316 33.4282L250.477 33.7118L250.632 33.991L250.783 34.2655L250.928 34.5352L251.068 34.8001L251.203 35.06L251.332 35.3149L251.457 35.5646L251.577 35.809L251.693 36.0481L251.803 36.2817L251.909 36.5097L252.011 36.7321L252.107 36.9488L252.2 37.1596L252.288 37.3645L252.372 37.5633L252.451 37.7561L252.527 37.9427L252.598 38.1231L252.665 38.2971L252.729 38.4647L252.789 38.6258L252.845 38.7803L252.897 38.9282L252.946 39.0694L252.992 39.2038L253.034 39.3314L253.073 39.4521L253.109 39.5658L253.142 39.6725L253.172 39.7721L253.199 39.8646L253.223 39.9499L253.244 40.028L253.263 40.0987L253.28 40.1622L253.294 40.2183L253.306 40.2669L253.316 40.3081L253.324 40.3418L253.33 40.368L253.334 40.3866L253.336 40.3976L253.337 40.401L253.336 40.3968L253.334 40.3849L253.33 40.3653L253.326 40.338L253.32 40.303L253.313 40.2603L253.305 40.2098L253.297 40.1515L253.288 40.0855L253.278 40.0118L253.269 39.9302L253.258 39.8409L253.248 39.7438L253.237 39.639L253.227 39.5264L253.216 39.4061L253.206 39.2781L253.196 39.1423L253.187 38.9989L253.178 38.8477L253.17 38.6889L253.162 38.5225L253.156 38.3485L253.15 38.1669L253.146 37.9778L253.143 37.7812L253.141 37.5771L253.14 37.3655L253.141 37.1466L253.144 36.9203L253.149 36.6867L253.155 36.4459L253.163 36.1979L253.174 35.9427L253.186 35.6804L253.201 35.411L253.218 35.1347L253.237 34.8515L253.26 34.5614L253.284 34.2645L253.312 33.9608L253.342 33.6505L253.375 33.3337L253.412 33.0103L253.451 32.6805L253.494 32.3443L253.54 32.0018L253.589 31.6532L253.642 31.2984L253.698 30.9376L253.758 30.5709L253.822 30.1983L253.889 29.8199L253.961 29.4359L254.036 29.0463L254.116 28.6512L254.199 28.2508L254.287 27.8451L254.379 27.4342L254.476 27.0182L254.577 26.5972L254.682 26.1714L254.792 25.7409L254.906 25.3057L255.026 24.8659L255.15 24.4218L255.278 23.9733L255.412 23.5207L255.551 23.064L255.694 22.6033L255.843 22.1388L255.996 21.6705L256.155 21.1987L256.319 20.7234L256.489 20.2448L256.663 19.7629L256.843 19.278L257.028 18.7901L257.219 18.2993L257.415 17.8059L257.616 17.3098L257.823 16.8114L258.036 16.3106L258.254 15.8076L258.478 15.3026L258.707 14.7956L258.942 14.2869L259.183 13.7766L259.429 13.2647L259.681 12.7515L259.939 12.237L260.202 11.7215L260.472 11.205L260.746 10.6876L261.027 10.1697L261.313 9.65113L261.606 9.13221L261.904 8.61303L262.207 8.09374L262.517 7.57447L262.832 7.05537L263.153 6.53658L263.479 6.01824L263.812 5.50047L264.15 4.98345L264.493 4.46729L264.843 3.95215L265.198 3.43815L265.558 2.92545L265.924 2.41418L266.296 1.90449L266.673 1.3965L267.056 0.890365L267.444 0.386213L267.838 -0.115806L268.237 -0.615566L268.641 -1.11292L269.051 -1.60774L269.466 -2.09988L269.886 -2.58922L270.311 -3.07562L270.742 -3.55892L271.177 -4.03903L271.618 -4.51579L272.063 -4.98908L272.513 -5.45876L272.968 -5.92471L273.428 -6.3868L273.893 -6.84489L274.362 -7.29886L274.836 -7.7486L275.315 -8.19397L275.798 -8.63484L276.285 -9.07111L276.776 -9.50264L277.272 -9.92932L277.772 -10.351L278.276 -10.7676L278.783 -11.1791L279.295 -11.5852L279.811 -11.9858L280.33 -12.381L280.853 -12.7704L281.379 -13.1541L281.909 -13.532L282.442 -13.9039L282.979 -14.2697L283.518 -14.6293L284.061 -14.9826L284.607 -15.3296L285.155 -15.6701L285.707 -16.004L286.26 -16.3313L286.817 -16.6518L287.376 -16.9655L287.937 -17.2722L288.501 -17.5719L289.066 -17.8646L289.634 -18.15L290.204 -18.4282L290.775 -18.699L291.348 -18.9625L291.923 -19.2184L292.499 -19.4668L293.076 -19.7075L293.655 -19.9406L294.235 -20.1659L294.815 -20.3833L295.397 -20.5929L295.979 -20.7945L296.562 -20.9881L297.145 -21.1737L297.729 -21.3511L298.313 -21.5204L298.897 -21.6815L299.481 -21.8343L300.065 -21.9788L300.649 -22.115L301.232 -22.2428L301.815 -22.3622L302.397 -22.4731L302.979 -22.5755L303.559 -22.6695L304.139 -22.7548L304.717 -22.8317L305.294 -22.8999L305.87 -22.9595L306.444 -23.0105L307.017 -23.0529L307.587 -23.0866L308.156 -23.1116L308.723 -23.128L309.287 -23.1357L309.85 -23.1347L310.409 -23.125L310.967 -23.1066L311.521 -23.0795L312.073 -23.0438L312.622 -22.9994L313.168 -22.9464L313.71 -22.8847L314.249 -22.8143L314.785 -22.7354L315.317 -22.6479L315.846 -22.5518L316.37 -22.4471L316.891 -22.334L317.408 -22.2123L317.92 -22.0822L318.428 -21.9437L318.932 -21.7967L319.431 -21.6415L319.925 -21.4779L320.415 -21.306L320.9 -21.126L321.379 -20.9377L321.854 -20.7414L322.323 -20.5369L322.787 -20.3245L323.246 -20.104L323.699 -19.8757L324.146 -19.6395L324.587 -19.3956L325.022 -19.1439L325.452 -18.8846L325.875 -18.6176L326.292 -18.3432L326.703 -18.0613L327.107 -17.7721L327.505 -17.4756L327.896 -17.1718L328.28 -16.8609L328.657 -16.543L329.028 -16.2181L329.391 -15.8863L329.748 -15.5477L330.097 -15.2024L330.439 -14.8505L330.773 -14.492L331.101 -14.1271L331.42 -13.7559L331.732 -13.3785L332.036 -12.9949L332.333 -12.6053L332.621 -12.2097L332.902 -11.8083L333.175 -11.4012L333.439 -10.9884L333.696 -10.5701L333.944 -10.1464L334.184 -9.71745L334.248 -9.59895Z" stroke="#587BE0"/>
</svg>
