<svg width="21" height="22" viewBox="0 0 21 22" fill="none" xmlns="http://www.w3.org/2000/svg">
<path d="M0 7.66414C0 6.67583 0.433984 5.73736 1.18702 5.09728L6.2403 0.801993C7.49833 -0.267329 9.34594 -0.267332 10.604 0.801991L15.6572 5.09728C16.4103 5.73736 16.8443 6.67583 16.8443 7.66414V16.2128C16.8443 18.0734 15.336 19.5817 13.4754 19.5817H3.36885C1.50829 19.5817 0 18.0734 0 16.2128V7.66414Z" fill="#B072FF"/>
<path d="M3.26062 10.0824C3.26062 9.09404 3.6946 8.15557 4.44764 7.51549L9.50092 3.22021C10.7589 2.15088 12.6066 2.15088 13.8646 3.2202L18.9179 7.51549C19.6709 8.15557 20.1049 9.09404 20.1049 10.0824V18.631C20.1049 20.4916 18.5966 21.9999 16.736 21.9999H6.62947C4.76891 21.9999 3.26062 20.4916 3.26062 18.631V10.0824Z" fill="#33373B"/>
</svg>
