<svg width="36" height="35" viewBox="0 0 36 35" fill="none" xmlns="http://www.w3.org/2000/svg">
    <circle cx="18.481" cy="17.5" r="17.5" fill="#34AE91"/>
    <path d="M11.4608 15.61C11.496 15.1715 11.6951 14.7623 12.0184 14.4639C12.3417 14.1655 12.7656 13.9999 13.2055 14H23.7563C24.1963 13.9999 24.6201 14.1655 24.9434 14.4639C25.2668 14.7623 25.4659 15.1715 25.501 15.61L26.2037 24.36C26.223 24.6008 26.1923 24.843 26.1134 25.0713C26.0345 25.2996 25.9093 25.5092 25.7454 25.6867C25.5816 25.8643 25.3828 26.006 25.1616 26.1029C24.9403 26.1998 24.7014 26.2499 24.4598 26.25H12.502C12.2605 26.2499 12.0215 26.1998 11.8003 26.1029C11.579 26.006 11.3802 25.8643 11.2164 25.6867C11.0526 25.5092 10.9273 25.2996 10.8484 25.0713C10.7696 24.843 10.7388 24.6008 10.7582 24.36L11.4608 15.61V15.61Z" stroke="white" stroke-width="2" stroke-linecap="round" stroke-linejoin="round"/>
    <path d="M21.981 16.625V12.25C21.981 11.3217 21.6122 10.4315 20.9558 9.77513C20.2995 9.11875 19.4092 8.75 18.481 8.75C17.5527 8.75 16.6625 9.11875 16.0061 9.77513C15.3497 10.4315 14.981 11.3217 14.981 12.25V16.625" stroke="white" stroke-width="2" stroke-linecap="round" stroke-linejoin="round"/>
</svg>
