<svg width="26" height="26" viewBox="0 0 26 26" fill="none" xmlns="http://www.w3.org/2000/svg">
<path d="M13.7811 5.42002L12.1929 5.41677C8.57025 5.4081 5.42533 8.35152 5.40041 11.9168V16.0226C5.40041 16.8784 5.29208 17.7137 4.82516 18.4254L4.51425 18.8999C4.04083 19.6193 4.55 20.5834 5.40041 20.5834H20.5996C21.45 20.5834 21.9581 19.6193 21.4857 18.8999L21.1748 18.4254C20.709 17.7137 20.5996 16.8773 20.5996 16.0215V11.9179C20.5562 8.35152 17.4037 5.42868 13.7811 5.42002V5.42002Z" fill="#BEBEC2"/>
<path d="M16.25 20.5833C16.25 21.4452 15.9076 22.2719 15.2981 22.8813C14.6886 23.4908 13.862 23.8333 13 23.8333C12.138 23.8333 11.3114 23.4908 10.7019 22.8813C10.0924 22.2719 9.75 21.4452 9.75 20.5833" fill="#6F6E73"/>
<path d="M13 2.16675C13.5746 2.16675 14.1257 2.39502 14.5321 2.80135C14.9384 3.20768 15.1667 3.75878 15.1667 4.33341V5.41675H10.8333V4.33341C10.8333 3.75878 11.0616 3.20768 11.4679 2.80135C11.8743 2.39502 12.4254 2.16675 13 2.16675Z" fill="#6F6E73"/>
<circle cx="19.5" cy="9.75" r="3.75" fill="#DD736D" stroke="#F5F5F5"/>
</svg>
