<svg width="26" height="26" viewBox="0 0 26 26" fill="none" xmlns="http://www.w3.org/2000/svg">
<path d="M15.1667 3.5415C15.1667 2.78208 14.5513 2.16675 13.7919 2.16675H12.2092C11.4487 2.16675 10.8333 2.78208 10.8333 3.5415C10.8333 4.16766 10.4043 4.705 9.82042 4.93466C9.72834 4.9715 9.63626 5.0105 9.54634 5.0495C8.97109 5.29866 8.28751 5.22283 7.84334 4.77975C7.58555 4.52214 7.23603 4.37744 6.87159 4.37744C6.50715 4.37744 6.15763 4.52214 5.89984 4.77975L4.77967 5.89991C4.52207 6.1577 4.37736 6.50723 4.37736 6.87167C4.37736 7.2361 4.52207 7.58563 4.77967 7.84341C5.22384 8.28758 5.29967 8.97008 5.04834 9.54642C5.00885 9.63712 4.97093 9.72849 4.93459 9.8205C4.70492 10.4044 4.16759 10.8334 3.54142 10.8334C2.78201 10.8334 2.16667 11.4487 2.16667 12.2082V13.792C2.16667 14.5514 2.78201 15.1667 3.54142 15.1667C4.16759 15.1667 4.70492 15.5957 4.93459 16.1797C4.97142 16.2717 5.01042 16.3638 5.04834 16.4537C5.29859 17.029 5.22276 17.7126 4.77967 18.1567C4.52207 18.4145 4.37736 18.7641 4.37736 19.1285C4.37736 19.4929 4.52207 19.8425 4.77967 20.1003L5.89984 21.2204C6.15763 21.478 6.50715 21.6227 6.87159 21.6227C7.23603 21.6227 7.58555 21.478 7.84334 21.2204C8.28751 20.7762 8.97001 20.7004 9.54634 20.9507C9.63626 20.9907 9.72834 21.0287 9.82042 21.0655C10.4043 21.2952 10.8333 21.8325 10.8333 22.4587C10.8333 23.2181 11.4487 23.8334 12.2081 23.8334H13.7919C14.5513 23.8334 15.1667 23.2181 15.1667 22.4587C15.1667 21.8325 15.5957 21.2952 16.1796 21.0644C16.2717 21.0287 16.3638 20.9907 16.4537 20.9517C17.0289 20.7004 17.7125 20.7773 18.1556 21.2204C18.2833 21.3481 18.4348 21.4494 18.6017 21.5186C18.7685 21.5877 18.9473 21.6233 19.1279 21.6233C19.3085 21.6233 19.4873 21.5877 19.6541 21.5186C19.8209 21.4494 19.9725 21.3481 20.1002 21.2204L21.2203 20.1003C21.4779 19.8425 21.6227 19.4929 21.6227 19.1285C21.6227 18.7641 21.4779 18.4145 21.2203 18.1567C20.7762 17.7126 20.7003 17.0301 20.9506 16.4537C20.9907 16.3638 21.0286 16.2717 21.0654 16.1797C21.2951 15.5957 21.8324 15.1667 22.4586 15.1667C23.218 15.1667 23.8333 14.5514 23.8333 13.792V12.2092C23.8333 11.4498 23.218 10.8345 22.4586 10.8345C21.8324 10.8345 21.2951 10.4055 21.0643 9.82158C21.028 9.72956 20.9901 9.63818 20.9506 9.5475C20.7014 8.97225 20.7773 8.28867 21.2203 7.8445C21.4779 7.58671 21.6227 7.23719 21.6227 6.87275C21.6227 6.50831 21.4779 6.15879 21.2203 5.901L20.1002 4.78083C19.8424 4.52323 19.4929 4.37852 19.1284 4.37852C18.764 4.37852 18.4145 4.52323 18.1567 4.78083C17.7125 5.225 17.03 5.30083 16.4537 5.05058C16.363 5.01072 16.2716 4.97244 16.1796 4.93575C15.5957 4.705 15.1667 4.16766 15.1667 3.54258V3.5415Z" fill="#BEBEC2"/>
<path d="M17.3333 13.0001C17.3333 14.1494 16.8768 15.2516 16.0641 16.0642C15.2515 16.8769 14.1493 17.3334 13 17.3334C11.8507 17.3334 10.7485 16.8769 9.93588 16.0642C9.12322 15.2516 8.66667 14.1494 8.66667 13.0001C8.66667 11.8508 9.12322 10.7486 9.93588 9.93595C10.7485 9.12329 11.8507 8.66675 13 8.66675C14.1493 8.66675 15.2515 9.12329 16.0641 9.93595C16.8768 10.7486 17.3333 11.8508 17.3333 13.0001Z" fill="#6F6E73"/>
</svg>
