<svg width="80" height="15" viewBox="0 0 80 15" fill="none" xmlns="http://www.w3.org/2000/svg">
<path d="M3.77 11.225C3.01 11.225 2.37 11.0375 1.85 10.6625C1.33 10.2825 0.935 9.77 0.665 9.125C0.4 8.475 0.2675 7.7475 0.2675 6.9425C0.2675 6.1275 0.4 5.3975 0.665 4.7525C0.935 4.1075 1.33 3.6 1.85 3.23C2.375 2.86 3.0175 2.675 3.7775 2.675C4.5275 2.675 5.1725 2.8625 5.7125 3.2375C6.2575 3.6075 6.675 4.115 6.965 4.76C7.255 5.405 7.4 6.1325 7.4 6.9425C7.4 7.7525 7.255 8.48 6.965 9.125C6.675 9.77 6.2575 10.2825 5.7125 10.6625C5.1725 11.0375 4.525 11.225 3.77 11.225ZM0.0425001 14.6V2.9H1.235V8.8625H1.385V14.6H0.0425001ZM3.605 10.0025C4.14 10.0025 4.5825 9.8675 4.9325 9.5975C5.2825 9.3275 5.545 8.9625 5.72 8.5025C5.895 8.0375 5.9825 7.5175 5.9825 6.9425C5.9825 6.3725 5.895 5.8575 5.72 5.3975C5.55 4.9375 5.285 4.5725 4.925 4.3025C4.57 4.0325 4.1175 3.8975 3.5675 3.8975C3.0425 3.8975 2.6075 4.0275 2.2625 4.2875C1.9175 4.5425 1.66 4.9 1.49 5.36C1.32 5.815 1.235 6.3425 1.235 6.9425C1.235 7.5325 1.3175 8.06 1.4825 8.525C1.6525 8.985 1.9125 9.3475 2.2625 9.6125C2.6125 9.8725 3.06 10.0025 3.605 10.0025ZM12.4941 11.225C11.6891 11.225 10.9941 11.0425 10.4091 10.6775C9.82914 10.3125 9.38164 9.8075 9.06664 9.1625C8.75164 8.5175 8.59414 7.7775 8.59414 6.9425C8.59414 6.0925 8.75414 5.3475 9.07414 4.7075C9.39414 4.0675 9.84664 3.57 10.4316 3.215C11.0166 2.855 11.7041 2.675 12.4941 2.675C13.3041 2.675 14.0016 2.8575 14.5866 3.2225C15.1716 3.5825 15.6191 4.085 15.9291 4.73C16.2441 5.37 16.4016 6.1075 16.4016 6.9425C16.4016 7.7875 16.2441 8.5325 15.9291 9.1775C15.6141 9.8175 15.1641 10.32 14.5791 10.685C13.9941 11.045 13.2991 11.225 12.4941 11.225ZM12.4941 9.9575C13.3341 9.9575 13.9591 9.6775 14.3691 9.1175C14.7791 8.5575 14.9841 7.8325 14.9841 6.9425C14.9841 6.0275 14.7766 5.3 14.3616 4.76C13.9466 4.215 13.3241 3.9425 12.4941 3.9425C11.9291 3.9425 11.4641 4.07 11.0991 4.325C10.7341 4.58 10.4616 4.9325 10.2816 5.3825C10.1016 5.8325 10.0116 6.3525 10.0116 6.9425C10.0116 7.8525 10.2216 8.5825 10.6416 9.1325C11.0616 9.6825 11.6791 9.9575 12.4941 9.9575ZM19.485 11L17.01 2.8925L18.3375 2.9L20.145 8.825L21.9675 2.9H23.145L24.96 8.825L26.775 2.9H28.095L25.62 11H24.51L22.5525 4.8425L20.595 11H19.485ZM32.6664 11.225C31.8714 11.225 31.1764 11.05 30.5814 10.7C29.9914 10.345 29.5314 9.8525 29.2014 9.2225C28.8714 8.5875 28.7064 7.8475 28.7064 7.0025C28.7064 6.1175 28.8689 5.3525 29.1939 4.7075C29.5189 4.0575 29.9714 3.5575 30.5514 3.2075C31.1364 2.8525 31.8214 2.675 32.6064 2.675C33.4214 2.675 34.1139 2.8625 34.6839 3.2375C35.2589 3.6125 35.6889 4.1475 35.9739 4.8425C36.2639 5.5375 36.3889 6.365 36.3489 7.325H34.9989V6.845C34.9839 5.85 34.7814 5.1075 34.3914 4.6175C34.0014 4.1225 33.4214 3.875 32.6514 3.875C31.8264 3.875 31.1989 4.14 30.7689 4.67C30.3389 5.2 30.1239 5.96 30.1239 6.95C30.1239 7.905 30.3389 8.645 30.7689 9.17C31.1989 9.695 31.8114 9.9575 32.6064 9.9575C33.1414 9.9575 33.6064 9.835 34.0014 9.59C34.3964 9.345 34.7064 8.9925 34.9314 8.5325L36.2139 8.975C35.8989 9.69 35.4239 10.245 34.7889 10.64C34.1589 11.03 33.4514 11.225 32.6664 11.225ZM29.6739 7.325V6.2525H35.6589V7.325H29.6739ZM38.0188 11V2.9H39.2113V4.8575L39.0163 4.6025C39.1113 4.3525 39.2338 4.1225 39.3838 3.9125C39.5388 3.7025 39.7113 3.53 39.9013 3.395C40.1113 3.225 40.3488 3.095 40.6138 3.005C40.8788 2.915 41.1488 2.8625 41.4238 2.8475C41.6988 2.8275 41.9563 2.845 42.1963 2.9V4.1525C41.9163 4.0775 41.6088 4.0575 41.2738 4.0925C40.9388 4.1275 40.6288 4.25 40.3438 4.46C40.0838 4.645 39.8813 4.87 39.7363 5.135C39.5963 5.4 39.4988 5.6875 39.4438 5.9975C39.3888 6.3025 39.3613 6.615 39.3613 6.935V11H38.0188ZM46.978 11.225C46.183 11.225 45.488 11.05 44.893 10.7C44.303 10.345 43.843 9.8525 43.513 9.2225C43.183 8.5875 43.018 7.8475 43.018 7.0025C43.018 6.1175 43.1805 5.3525 43.5055 4.7075C43.8305 4.0575 44.283 3.5575 44.863 3.2075C45.448 2.8525 46.133 2.675 46.918 2.675C47.733 2.675 48.4255 2.8625 48.9955 3.2375C49.5705 3.6125 50.0005 4.1475 50.2855 4.8425C50.5755 5.5375 50.7005 6.365 50.6605 7.325H49.3105V6.845C49.2955 5.85 49.093 5.1075 48.703 4.6175C48.313 4.1225 47.733 3.875 46.963 3.875C46.138 3.875 45.5105 4.14 45.0805 4.67C44.6505 5.2 44.4355 5.96 44.4355 6.95C44.4355 7.905 44.6505 8.645 45.0805 9.17C45.5105 9.695 46.123 9.9575 46.918 9.9575C47.453 9.9575 47.918 9.835 48.313 9.59C48.708 9.345 49.018 8.9925 49.243 8.5325L50.5255 8.975C50.2105 9.69 49.7355 10.245 49.1005 10.64C48.4705 11.03 47.763 11.225 46.978 11.225ZM43.9855 7.325V6.2525H49.9705V7.325H43.9855ZM55.5103 11.225C54.7553 11.225 54.1078 11.0375 53.5678 10.6625C53.0278 10.2825 52.6103 9.77 52.3153 9.125C52.0253 8.48 51.8803 7.7525 51.8803 6.9425C51.8803 6.1325 52.0253 5.405 52.3153 4.76C52.6103 4.115 53.0278 3.6075 53.5678 3.2375C54.1078 2.8625 54.7528 2.675 55.5028 2.675C56.2678 2.675 56.9103 2.86 57.4303 3.23C57.9503 3.6 58.3428 4.1075 58.6078 4.7525C58.8778 5.3975 59.0128 6.1275 59.0128 6.9425C59.0128 7.7475 58.8778 8.475 58.6078 9.125C58.3428 9.77 57.9503 10.2825 57.4303 10.6625C56.9103 11.0375 56.2703 11.225 55.5103 11.225ZM55.6753 10.0025C56.2203 10.0025 56.6678 9.8725 57.0178 9.6125C57.3678 9.3475 57.6253 8.985 57.7903 8.525C57.9603 8.06 58.0453 7.5325 58.0453 6.9425C58.0453 6.3425 57.9603 5.815 57.7903 5.36C57.6253 4.9 57.3703 4.5425 57.0253 4.2875C56.6803 4.0275 56.2428 3.8975 55.7128 3.8975C55.1628 3.8975 54.7078 4.0325 54.3478 4.3025C53.9928 4.5725 53.7278 4.9375 53.5528 5.3975C53.3828 5.8575 53.2978 6.3725 53.2978 6.9425C53.2978 7.5175 53.3853 8.0375 53.5603 8.5025C53.7353 8.9625 53.9978 9.3275 54.3478 9.5975C54.7028 9.8675 55.1453 10.0025 55.6753 10.0025ZM58.0453 11V5.0375H57.8953V0.2H59.2378V11H58.0453ZM68.062 11.225C67.302 11.225 66.662 11.0375 66.142 10.6625C65.622 10.2825 65.227 9.77 64.957 9.125C64.692 8.475 64.5595 7.7475 64.5595 6.9425C64.5595 6.1275 64.692 5.3975 64.957 4.7525C65.227 4.1075 65.622 3.6 66.142 3.23C66.667 2.86 67.3095 2.675 68.0695 2.675C68.8195 2.675 69.4645 2.8625 70.0045 3.2375C70.5495 3.6075 70.967 4.115 71.257 4.76C71.547 5.405 71.692 6.1325 71.692 6.9425C71.692 7.7525 71.547 8.48 71.257 9.125C70.967 9.77 70.5495 10.2825 70.0045 10.6625C69.4645 11.0375 68.817 11.225 68.062 11.225ZM64.3345 11V0.2H65.677V5.0375H65.527V11H64.3345ZM67.897 10.0025C68.432 10.0025 68.8745 9.8675 69.2245 9.5975C69.5745 9.3275 69.837 8.9625 70.012 8.5025C70.187 8.0375 70.2745 7.5175 70.2745 6.9425C70.2745 6.3725 70.187 5.8575 70.012 5.3975C69.842 4.9375 69.577 4.5725 69.217 4.3025C68.862 4.0325 68.4095 3.8975 67.8595 3.8975C67.3345 3.8975 66.8995 4.0275 66.5545 4.2875C66.2095 4.5425 65.952 4.9 65.782 5.36C65.612 5.815 65.527 6.3425 65.527 6.9425C65.527 7.5325 65.6095 8.06 65.7745 8.525C65.9445 8.985 66.2045 9.3475 66.5545 9.6125C66.9045 9.8725 67.352 10.0025 67.897 10.0025ZM74.0217 14.6L75.5892 10.34L75.6117 11.6L72.0717 2.9H73.4742L76.2492 9.8975H75.7692L78.3717 2.9H79.7292L75.3192 14.6H74.0217Z" fill="white" fill-opacity="0.9"/>
</svg>
