<svg width="269" height="15" viewBox="0 0 269 15" fill="none" xmlns="http://www.w3.org/2000/svg">
<path opacity="0.9" d="M2.81588 11.225C2.21088 11.225 1.70338 11.115 1.29338 10.895C0.888379 10.67 0.580879 10.375 0.370879 10.01C0.165879 9.645 0.0633789 9.245 0.0633789 8.81C0.0633789 8.385 0.143379 8.0175 0.303379 7.7075C0.468379 7.3925 0.698379 7.1325 0.993379 6.9275C1.28838 6.7175 1.64088 6.5525 2.05088 6.4325C2.43588 6.3275 2.86588 6.2375 3.34088 6.1625C3.82088 6.0825 4.30588 6.01 4.79588 5.945C5.28588 5.88 5.74338 5.8175 6.16838 5.7575L5.68838 6.035C5.70338 5.315 5.55838 4.7825 5.25338 4.4375C4.95338 4.0925 4.43338 3.92 3.69338 3.92C3.20338 3.92 2.77338 4.0325 2.40338 4.2575C2.03838 4.4775 1.78088 4.8375 1.63088 5.3375L0.363379 4.955C0.558379 4.245 0.935879 3.6875 1.49588 3.2825C2.05588 2.8775 2.79338 2.675 3.70838 2.675C4.44338 2.675 5.07338 2.8075 5.59838 3.0725C6.12838 3.3325 6.50838 3.7275 6.73838 4.2575C6.85338 4.5075 6.92588 4.78 6.95588 5.075C6.98588 5.365 7.00088 5.67 7.00088 5.99V11H5.81588V9.0575L6.09338 9.2375C5.78838 9.8925 5.36088 10.3875 4.81088 10.7225C4.26588 11.0575 3.60088 11.225 2.81588 11.225ZM3.01838 10.1075C3.49838 10.1075 3.91338 10.0225 4.26338 9.8525C4.61838 9.6775 4.90338 9.45 5.11838 9.17C5.33338 8.885 5.47338 8.575 5.53838 8.24C5.61338 7.99 5.65338 7.7125 5.65838 7.4075C5.66838 7.0975 5.67338 6.86 5.67338 6.695L6.13838 6.8975C5.70338 6.9575 5.27588 7.015 4.85588 7.07C4.43588 7.125 4.03838 7.185 3.66338 7.25C3.28838 7.31 2.95088 7.3825 2.65088 7.4675C2.43088 7.5375 2.22338 7.6275 2.02838 7.7375C1.83838 7.8475 1.68338 7.99 1.56338 8.165C1.44838 8.335 1.39088 8.5475 1.39088 8.8025C1.39088 9.0225 1.44588 9.2325 1.55588 9.4325C1.67088 9.6325 1.84588 9.795 2.08088 9.92C2.32088 10.045 2.63338 10.1075 3.01838 10.1075ZM13.6788 11L11.2038 2.8925L12.5313 2.9L14.3388 8.825L16.1613 2.9H17.3388L19.1538 8.825L20.9688 2.9H22.2888L19.8138 11H18.7038L16.7463 4.8425L14.7888 11H13.6788ZM26.8603 11.225C26.0653 11.225 25.3703 11.05 24.7753 10.7C24.1853 10.345 23.7253 9.8525 23.3953 9.2225C23.0653 8.5875 22.9003 7.8475 22.9003 7.0025C22.9003 6.1175 23.0628 5.3525 23.3878 4.7075C23.7128 4.0575 24.1653 3.5575 24.7453 3.2075C25.3303 2.8525 26.0153 2.675 26.8003 2.675C27.6153 2.675 28.3078 2.8625 28.8778 3.2375C29.4528 3.6125 29.8828 4.1475 30.1678 4.8425C30.4578 5.5375 30.5828 6.365 30.5428 7.325H29.1928V6.845C29.1778 5.85 28.9753 5.1075 28.5853 4.6175C28.1953 4.1225 27.6153 3.875 26.8453 3.875C26.0203 3.875 25.3928 4.14 24.9628 4.67C24.5328 5.2 24.3178 5.96 24.3178 6.95C24.3178 7.905 24.5328 8.645 24.9628 9.17C25.3928 9.695 26.0053 9.9575 26.8003 9.9575C27.3353 9.9575 27.8003 9.835 28.1953 9.59C28.5903 9.345 28.9003 8.9925 29.1253 8.5325L30.4078 8.975C30.0928 9.69 29.6178 10.245 28.9828 10.64C28.3528 11.03 27.6453 11.225 26.8603 11.225ZM23.8678 7.325V6.2525H29.8528V7.325H23.8678ZM35.9326 11.225C35.1726 11.225 34.5326 11.0375 34.0126 10.6625C33.4926 10.2825 33.0976 9.77 32.8276 9.125C32.5626 8.475 32.4301 7.7475 32.4301 6.9425C32.4301 6.1275 32.5626 5.3975 32.8276 4.7525C33.0976 4.1075 33.4926 3.6 34.0126 3.23C34.5376 2.86 35.1801 2.675 35.9401 2.675C36.6901 2.675 37.3351 2.8625 37.8751 3.2375C38.4201 3.6075 38.8376 4.115 39.1276 4.76C39.4176 5.405 39.5626 6.1325 39.5626 6.9425C39.5626 7.7525 39.4176 8.48 39.1276 9.125C38.8376 9.77 38.4201 10.2825 37.8751 10.6625C37.3351 11.0375 36.6876 11.225 35.9326 11.225ZM32.2051 11V0.2H33.5476V5.0375H33.3976V11H32.2051ZM35.7676 10.0025C36.3026 10.0025 36.7451 9.8675 37.0951 9.5975C37.4451 9.3275 37.7076 8.9625 37.8826 8.5025C38.0576 8.0375 38.1451 7.5175 38.1451 6.9425C38.1451 6.3725 38.0576 5.8575 37.8826 5.3975C37.7126 4.9375 37.4476 4.5725 37.0876 4.3025C36.7326 4.0325 36.2801 3.8975 35.7301 3.8975C35.2051 3.8975 34.7701 4.0275 34.4251 4.2875C34.0801 4.5425 33.8226 4.9 33.6526 5.36C33.4826 5.815 33.3976 6.3425 33.3976 6.9425C33.3976 7.5325 33.4801 8.06 33.6451 8.525C33.8151 8.985 34.0751 9.3475 34.4251 9.6125C34.7751 9.8725 35.2226 10.0025 35.7676 10.0025ZM44.1692 11.21C43.6342 11.21 43.1367 11.1125 42.6767 10.9175C42.2167 10.7175 41.8192 10.4375 41.4842 10.0775C41.1542 9.7125 40.9117 9.28 40.7567 8.78L42.0392 8.4125C42.2042 8.9125 42.4792 9.2925 42.8642 9.5525C43.2492 9.8125 43.6817 9.94 44.1617 9.935C44.6017 9.925 44.9817 9.825 45.3017 9.635C45.6267 9.44 45.8767 9.175 46.0517 8.84C46.2317 8.505 46.3217 8.1175 46.3217 7.6775C46.3217 7.0075 46.1217 6.465 45.7217 6.05C45.3217 5.63 44.7967 5.42 44.1467 5.42C43.9667 5.42 43.7767 5.445 43.5767 5.495C43.3817 5.545 43.1992 5.615 43.0292 5.705L42.3842 4.6475L46.3892 1.025L46.5617 1.475H41.1842V0.2H47.5517V1.4825L44.1392 4.7525L44.1242 4.28C44.8392 4.23 45.4642 4.3475 45.9992 4.6325C46.5342 4.9175 46.9492 5.325 47.2442 5.855C47.5442 6.385 47.6942 6.9925 47.6942 7.6775C47.6942 8.3675 47.5392 8.9775 47.2292 9.5075C46.9192 10.0375 46.4992 10.455 45.9692 10.76C45.4392 11.06 44.8392 11.21 44.1692 11.21ZM55.9247 14.825C55.4997 14.825 55.0847 14.76 54.6797 14.63C54.2747 14.5 53.9022 14.3025 53.5622 14.0375C53.2272 13.7775 52.9472 13.4475 52.7222 13.0475L53.9447 12.4025C54.1447 12.7975 54.4272 13.085 54.7922 13.265C55.1622 13.445 55.5422 13.535 55.9322 13.535C56.4472 13.535 56.8747 13.44 57.2147 13.25C57.5547 13.065 57.8047 12.7875 57.9647 12.4175C58.1297 12.0475 58.2097 11.5875 58.2047 11.0375V8.825H58.3622V2.9H59.5472V11.0525C59.5472 11.2725 59.5397 11.485 59.5247 11.69C59.5147 11.895 59.4897 12.0975 59.4497 12.2975C59.3447 12.8725 59.1372 13.345 58.8272 13.715C58.5172 14.09 58.1172 14.3675 57.6272 14.5475C57.1372 14.7325 56.5697 14.825 55.9247 14.825ZM55.8272 11.225C55.0722 11.225 54.4247 11.0375 53.8847 10.6625C53.3447 10.2825 52.9272 9.77 52.6322 9.125C52.3422 8.48 52.1972 7.7525 52.1972 6.9425C52.1972 6.1325 52.3422 5.405 52.6322 4.76C52.9272 4.115 53.3447 3.6075 53.8847 3.2375C54.4247 2.8625 55.0697 2.675 55.8197 2.675C56.5847 2.675 57.2272 2.86 57.7472 3.23C58.2672 3.6 58.6597 4.1075 58.9247 4.7525C59.1947 5.3975 59.3297 6.1275 59.3297 6.9425C59.3297 7.7475 59.1947 8.475 58.9247 9.125C58.6597 9.77 58.2672 10.2825 57.7472 10.6625C57.2272 11.0375 56.5872 11.225 55.8272 11.225ZM55.9922 10.0025C56.5372 10.0025 56.9847 9.8725 57.3347 9.6125C57.6847 9.3475 57.9422 8.985 58.1072 8.525C58.2772 8.06 58.3622 7.5325 58.3622 6.9425C58.3622 6.3425 58.2772 5.815 58.1072 5.36C57.9422 4.9 57.6872 4.5425 57.3422 4.2875C56.9972 4.0275 56.5597 3.8975 56.0297 3.8975C55.4797 3.8975 55.0247 4.0325 54.6647 4.3025C54.3097 4.5725 54.0447 4.9375 53.8697 5.3975C53.6997 5.8575 53.6147 6.3725 53.6147 6.9425C53.6147 7.5175 53.7022 8.0375 53.8772 8.5025C54.0522 8.9625 54.3147 9.3275 54.6647 9.5975C55.0197 9.8675 55.4622 10.0025 55.9922 10.0025ZM63.9438 11.225C63.3388 11.225 62.8313 11.115 62.4213 10.895C62.0163 10.67 61.7088 10.375 61.4988 10.01C61.2938 9.645 61.1913 9.245 61.1913 8.81C61.1913 8.385 61.2713 8.0175 61.4313 7.7075C61.5963 7.3925 61.8263 7.1325 62.1213 6.9275C62.4163 6.7175 62.7688 6.5525 63.1788 6.4325C63.5638 6.3275 63.9938 6.2375 64.4688 6.1625C64.9488 6.0825 65.4338 6.01 65.9238 5.945C66.4138 5.88 66.8713 5.8175 67.2963 5.7575L66.8163 6.035C66.8313 5.315 66.6863 4.7825 66.3813 4.4375C66.0813 4.0925 65.5613 3.92 64.8213 3.92C64.3313 3.92 63.9013 4.0325 63.5313 4.2575C63.1663 4.4775 62.9088 4.8375 62.7588 5.3375L61.4913 4.955C61.6863 4.245 62.0638 3.6875 62.6238 3.2825C63.1838 2.8775 63.9213 2.675 64.8363 2.675C65.5713 2.675 66.2013 2.8075 66.7263 3.0725C67.2563 3.3325 67.6363 3.7275 67.8663 4.2575C67.9813 4.5075 68.0538 4.78 68.0838 5.075C68.1138 5.365 68.1288 5.67 68.1288 5.99V11H66.9438V9.0575L67.2213 9.2375C66.9163 9.8925 66.4888 10.3875 65.9388 10.7225C65.3938 11.0575 64.7288 11.225 63.9438 11.225ZM64.1463 10.1075C64.6263 10.1075 65.0413 10.0225 65.3913 9.8525C65.7463 9.6775 66.0313 9.45 66.2463 9.17C66.4613 8.885 66.6013 8.575 66.6663 8.24C66.7413 7.99 66.7813 7.7125 66.7863 7.4075C66.7963 7.0975 66.8013 6.86 66.8013 6.695L67.2663 6.8975C66.8313 6.9575 66.4038 7.015 65.9838 7.07C65.5638 7.125 65.1663 7.185 64.7913 7.25C64.4163 7.31 64.0788 7.3825 63.7788 7.4675C63.5588 7.5375 63.3513 7.6275 63.1563 7.7375C62.9663 7.8475 62.8113 7.99 62.6913 8.165C62.5763 8.335 62.5188 8.5475 62.5188 8.8025C62.5188 9.0225 62.5738 9.2325 62.6838 9.4325C62.7988 9.6325 62.9738 9.795 63.2088 9.92C63.4488 10.045 63.7613 10.1075 64.1463 10.1075ZM74.6013 11C74.1213 11.095 73.6463 11.1325 73.1763 11.1125C72.7113 11.0975 72.2963 11.005 71.9313 10.835C71.5663 10.66 71.2888 10.39 71.0988 10.025C70.9388 9.705 70.8513 9.3825 70.8363 9.0575C70.8263 8.7275 70.8213 8.355 70.8213 7.94V0.649999H72.1563V7.88C72.1563 8.21 72.1588 8.4925 72.1638 8.7275C72.1738 8.9625 72.2263 9.165 72.3213 9.335C72.5013 9.655 72.7863 9.8425 73.1763 9.8975C73.5713 9.9525 74.0463 9.9375 74.6013 9.8525V11ZM69.1788 4.0025V2.9H74.6013V4.0025H69.1788ZM79.4189 11.225C78.6239 11.225 77.9289 11.05 77.3339 10.7C76.7439 10.345 76.2839 9.8525 75.9539 9.2225C75.6239 8.5875 75.4589 7.8475 75.4589 7.0025C75.4589 6.1175 75.6214 5.3525 75.9464 4.7075C76.2714 4.0575 76.7239 3.5575 77.3039 3.2075C77.8889 2.8525 78.5739 2.675 79.3589 2.675C80.1739 2.675 80.8664 2.8625 81.4364 3.2375C82.0114 3.6125 82.4414 4.1475 82.7264 4.8425C83.0164 5.5375 83.1414 6.365 83.1014 7.325H81.7514V6.845C81.7364 5.85 81.5339 5.1075 81.1439 4.6175C80.7539 4.1225 80.1739 3.875 79.4039 3.875C78.5789 3.875 77.9514 4.14 77.5214 4.67C77.0914 5.2 76.8764 5.96 76.8764 6.95C76.8764 7.905 77.0914 8.645 77.5214 9.17C77.9514 9.695 78.5639 9.9575 79.3589 9.9575C79.8939 9.9575 80.3589 9.835 80.7539 9.59C81.1489 9.345 81.4589 8.9925 81.6839 8.5325L82.9664 8.975C82.6514 9.69 82.1764 10.245 81.5414 10.64C80.9114 11.03 80.2039 11.225 79.4189 11.225ZM76.4264 7.325V6.2525H82.4114V7.325H76.4264ZM86.2032 11L83.7282 2.8925L85.0557 2.9L86.8632 8.825L88.6857 2.9H89.8632L91.6782 8.825L93.4932 2.9H94.8132L92.3382 11H91.2282L89.2707 4.8425L87.3132 11H86.2032ZM98.0161 11.225C97.4111 11.225 96.9036 11.115 96.4936 10.895C96.0886 10.67 95.7811 10.375 95.5711 10.01C95.3661 9.645 95.2636 9.245 95.2636 8.81C95.2636 8.385 95.3436 8.0175 95.5036 7.7075C95.6686 7.3925 95.8986 7.1325 96.1936 6.9275C96.4886 6.7175 96.8411 6.5525 97.2511 6.4325C97.6361 6.3275 98.0661 6.2375 98.5411 6.1625C99.0211 6.0825 99.5061 6.01 99.9961 5.945C100.486 5.88 100.944 5.8175 101.369 5.7575L100.889 6.035C100.904 5.315 100.759 4.7825 100.454 4.4375C100.154 4.0925 99.6336 3.92 98.8936 3.92C98.4036 3.92 97.9736 4.0325 97.6036 4.2575C97.2386 4.4775 96.9811 4.8375 96.8311 5.3375L95.5636 4.955C95.7586 4.245 96.1361 3.6875 96.6961 3.2825C97.2561 2.8775 97.9936 2.675 98.9086 2.675C99.6436 2.675 100.274 2.8075 100.799 3.0725C101.329 3.3325 101.709 3.7275 101.939 4.2575C102.054 4.5075 102.126 4.78 102.156 5.075C102.186 5.365 102.201 5.67 102.201 5.99V11H101.016V9.0575L101.294 9.2375C100.989 9.8925 100.561 10.3875 100.011 10.7225C99.4661 11.0575 98.8011 11.225 98.0161 11.225ZM98.2186 10.1075C98.6986 10.1075 99.1136 10.0225 99.4636 9.8525C99.8186 9.6775 100.104 9.45 100.319 9.17C100.534 8.885 100.674 8.575 100.739 8.24C100.814 7.99 100.854 7.7125 100.859 7.4075C100.869 7.0975 100.874 6.86 100.874 6.695L101.339 6.8975C100.904 6.9575 100.476 7.015 100.056 7.07C99.6361 7.125 99.2386 7.185 98.8636 7.25C98.4886 7.31 98.1511 7.3825 97.8511 7.4675C97.6311 7.5375 97.4236 7.6275 97.2286 7.7375C97.0386 7.8475 96.8836 7.99 96.7636 8.165C96.6486 8.335 96.5911 8.5475 96.5911 8.8025C96.5911 9.0225 96.6461 9.2325 96.7561 9.4325C96.8711 9.6325 97.0461 9.795 97.2811 9.92C97.5211 10.045 97.8336 10.1075 98.2186 10.1075ZM104.822 14.6L106.389 10.34L106.412 11.6L102.872 2.9H104.274L107.049 9.8975H106.569L109.172 2.9H110.529L106.119 14.6H104.822ZM119.294 11C118.814 11.095 118.339 11.1325 117.869 11.1125C117.404 11.0975 116.989 11.005 116.624 10.835C116.259 10.66 115.981 10.39 115.791 10.025C115.631 9.705 115.544 9.3825 115.529 9.0575C115.519 8.7275 115.514 8.355 115.514 7.94V0.649999H116.849V7.88C116.849 8.21 116.851 8.4925 116.856 8.7275C116.866 8.9625 116.919 9.165 117.014 9.335C117.194 9.655 117.479 9.8425 117.869 9.8975C118.264 9.9525 118.739 9.9375 119.294 9.8525V11ZM113.871 4.0025V2.9H119.294V4.0025H113.871ZM124.051 11.225C123.246 11.225 122.551 11.0425 121.966 10.6775C121.386 10.3125 120.939 9.8075 120.624 9.1625C120.309 8.5175 120.151 7.7775 120.151 6.9425C120.151 6.0925 120.311 5.3475 120.631 4.7075C120.951 4.0675 121.404 3.57 121.989 3.215C122.574 2.855 123.261 2.675 124.051 2.675C124.861 2.675 125.559 2.8575 126.144 3.2225C126.729 3.5825 127.176 4.085 127.486 4.73C127.801 5.37 127.959 6.1075 127.959 6.9425C127.959 7.7875 127.801 8.5325 127.486 9.1775C127.171 9.8175 126.721 10.32 126.136 10.685C125.551 11.045 124.856 11.225 124.051 11.225ZM124.051 9.9575C124.891 9.9575 125.516 9.6775 125.926 9.1175C126.336 8.5575 126.541 7.8325 126.541 6.9425C126.541 6.0275 126.334 5.3 125.919 4.76C125.504 4.215 124.881 3.9425 124.051 3.9425C123.486 3.9425 123.021 4.07 122.656 4.325C122.291 4.58 122.019 4.9325 121.839 5.3825C121.659 5.8325 121.569 6.3525 121.569 6.9425C121.569 7.8525 121.779 8.5825 122.199 9.1325C122.619 9.6825 123.236 9.9575 124.051 9.9575ZM138.38 11V6.9425C138.38 6.5575 138.345 6.1875 138.275 5.8325C138.21 5.4775 138.093 5.16 137.923 4.88C137.758 4.595 137.533 4.37 137.248 4.205C136.968 4.04 136.613 3.9575 136.183 3.9575C135.848 3.9575 135.543 4.015 135.268 4.13C134.998 4.24 134.765 4.41 134.57 4.64C134.375 4.87 134.223 5.16 134.113 5.51C134.008 5.855 133.955 6.2625 133.955 6.7325L133.078 6.4625C133.078 5.6775 133.218 5.005 133.498 4.445C133.783 3.88 134.18 3.4475 134.69 3.1475C135.205 2.8425 135.81 2.69 136.505 2.69C137.03 2.69 137.478 2.7725 137.848 2.9375C138.218 3.1025 138.525 3.3225 138.77 3.5975C139.015 3.8675 139.208 4.1725 139.348 4.5125C139.488 4.8475 139.585 5.19 139.64 5.54C139.7 5.885 139.73 6.2125 139.73 6.5225V11H138.38ZM132.605 11V0.2H133.805V6.1625H133.955V11H132.605ZM141.83 1.4675V0.0874997H143.165V1.4675H141.83ZM141.83 11V2.9H143.165V11H141.83ZM148.596 11.225C147.841 11.225 147.193 11.0375 146.653 10.6625C146.113 10.2825 145.696 9.77 145.401 9.125C145.111 8.48 144.966 7.7525 144.966 6.9425C144.966 6.1325 145.111 5.405 145.401 4.76C145.696 4.115 146.113 3.6075 146.653 3.2375C147.193 2.8625 147.838 2.675 148.588 2.675C149.353 2.675 149.996 2.86 150.516 3.23C151.036 3.6 151.428 4.1075 151.693 4.7525C151.963 5.3975 152.098 6.1275 152.098 6.9425C152.098 7.7475 151.963 8.475 151.693 9.125C151.428 9.77 151.036 10.2825 150.516 10.6625C149.996 11.0375 149.356 11.225 148.596 11.225ZM148.761 10.0025C149.306 10.0025 149.753 9.8725 150.103 9.6125C150.453 9.3475 150.711 8.985 150.876 8.525C151.046 8.06 151.131 7.5325 151.131 6.9425C151.131 6.3425 151.046 5.815 150.876 5.36C150.711 4.9 150.456 4.5425 150.111 4.2875C149.766 4.0275 149.328 3.8975 148.798 3.8975C148.248 3.8975 147.793 4.0325 147.433 4.3025C147.078 4.5725 146.813 4.9375 146.638 5.3975C146.468 5.8575 146.383 6.3725 146.383 6.9425C146.383 7.5175 146.471 8.0375 146.646 8.5025C146.821 8.9625 147.083 9.3275 147.433 9.5975C147.788 9.8675 148.231 10.0025 148.761 10.0025ZM151.131 11V5.0375H150.981V0.2H152.323V11H151.131ZM157.605 11.225C156.85 11.225 156.202 11.0375 155.662 10.6625C155.122 10.2825 154.705 9.77 154.41 9.125C154.12 8.48 153.975 7.7525 153.975 6.9425C153.975 6.1325 154.12 5.405 154.41 4.76C154.705 4.115 155.122 3.6075 155.662 3.2375C156.202 2.8625 156.847 2.675 157.597 2.675C158.362 2.675 159.005 2.86 159.525 3.23C160.045 3.6 160.437 4.1075 160.702 4.7525C160.972 5.3975 161.107 6.1275 161.107 6.9425C161.107 7.7475 160.972 8.475 160.702 9.125C160.437 9.77 160.045 10.2825 159.525 10.6625C159.005 11.0375 158.365 11.225 157.605 11.225ZM157.77 10.0025C158.315 10.0025 158.762 9.8725 159.112 9.6125C159.462 9.3475 159.72 8.985 159.885 8.525C160.055 8.06 160.14 7.5325 160.14 6.9425C160.14 6.3425 160.055 5.815 159.885 5.36C159.72 4.9 159.465 4.5425 159.12 4.2875C158.775 4.0275 158.337 3.8975 157.807 3.8975C157.257 3.8975 156.802 4.0325 156.442 4.3025C156.087 4.5725 155.822 4.9375 155.647 5.3975C155.477 5.8575 155.392 6.3725 155.392 6.9425C155.392 7.5175 155.48 8.0375 155.655 8.5025C155.83 8.9625 156.092 9.3275 156.442 9.5975C156.797 9.8675 157.24 10.0025 157.77 10.0025ZM160.14 11V5.0375H159.99V0.2H161.332V11H160.14ZM166.943 11.225C166.148 11.225 165.453 11.05 164.858 10.7C164.268 10.345 163.808 9.8525 163.478 9.2225C163.148 8.5875 162.983 7.8475 162.983 7.0025C162.983 6.1175 163.146 5.3525 163.471 4.7075C163.796 4.0575 164.248 3.5575 164.828 3.2075C165.413 2.8525 166.098 2.675 166.883 2.675C167.698 2.675 168.391 2.8625 168.961 3.2375C169.536 3.6125 169.966 4.1475 170.251 4.8425C170.541 5.5375 170.666 6.365 170.626 7.325H169.276V6.845C169.261 5.85 169.058 5.1075 168.668 4.6175C168.278 4.1225 167.698 3.875 166.928 3.875C166.103 3.875 165.476 4.14 165.046 4.67C164.616 5.2 164.401 5.96 164.401 6.95C164.401 7.905 164.616 8.645 165.046 9.17C165.476 9.695 166.088 9.9575 166.883 9.9575C167.418 9.9575 167.883 9.835 168.278 9.59C168.673 9.345 168.983 8.9925 169.208 8.5325L170.491 8.975C170.176 9.69 169.701 10.245 169.066 10.64C168.436 11.03 167.728 11.225 166.943 11.225ZM163.951 7.325V6.2525H169.936V7.325H163.951ZM177.843 11V6.9425C177.843 6.5575 177.808 6.1875 177.738 5.8325C177.673 5.4775 177.556 5.16 177.386 4.88C177.221 4.595 176.996 4.37 176.711 4.205C176.431 4.04 176.076 3.9575 175.646 3.9575C175.311 3.9575 175.006 4.015 174.731 4.13C174.461 4.24 174.228 4.41 174.033 4.64C173.838 4.87 173.686 5.16 173.576 5.51C173.471 5.855 173.418 6.2625 173.418 6.7325L172.541 6.4625C172.541 5.6775 172.681 5.005 172.961 4.445C173.246 3.88 173.643 3.4475 174.153 3.1475C174.668 2.8425 175.273 2.69 175.968 2.69C176.493 2.69 176.941 2.7725 177.311 2.9375C177.681 3.1025 177.988 3.3225 178.233 3.5975C178.478 3.8675 178.671 4.1725 178.811 4.5125C178.951 4.8475 179.048 5.19 179.103 5.54C179.163 5.885 179.193 6.2125 179.193 6.5225V11H177.843ZM172.068 11V2.9H173.268V5.0675H173.418V11H172.068ZM187.656 11.225C186.861 11.225 186.166 11.05 185.571 10.7C184.981 10.345 184.521 9.8525 184.191 9.2225C183.861 8.5875 183.696 7.8475 183.696 7.0025C183.696 6.1175 183.859 5.3525 184.184 4.7075C184.509 4.0575 184.961 3.5575 185.541 3.2075C186.126 2.8525 186.811 2.675 187.596 2.675C188.411 2.675 189.104 2.8625 189.674 3.2375C190.249 3.6125 190.679 4.1475 190.964 4.8425C191.254 5.5375 191.379 6.365 191.339 7.325H189.989V6.845C189.974 5.85 189.771 5.1075 189.381 4.6175C188.991 4.1225 188.411 3.875 187.641 3.875C186.816 3.875 186.189 4.14 185.759 4.67C185.329 5.2 185.114 5.96 185.114 6.95C185.114 7.905 185.329 8.645 185.759 9.17C186.189 9.695 186.801 9.9575 187.596 9.9575C188.131 9.9575 188.596 9.835 188.991 9.59C189.386 9.345 189.696 8.9925 189.921 8.5325L191.204 8.975C190.889 9.69 190.414 10.245 189.779 10.64C189.149 11.03 188.441 11.225 187.656 11.225ZM184.664 7.325V6.2525H190.649V7.325H184.664ZM191.816 11L194.913 6.905L191.883 2.9H193.473L195.693 5.87L197.891 2.9H199.481L196.451 6.905L199.556 11H197.958L195.693 7.94L193.413 11H191.816ZM204.478 11.225C203.718 11.225 203.078 11.0375 202.558 10.6625C202.038 10.2825 201.643 9.77 201.373 9.125C201.108 8.475 200.975 7.7475 200.975 6.9425C200.975 6.1275 201.108 5.3975 201.373 4.7525C201.643 4.1075 202.038 3.6 202.558 3.23C203.083 2.86 203.725 2.675 204.485 2.675C205.235 2.675 205.88 2.8625 206.42 3.2375C206.965 3.6075 207.383 4.115 207.673 4.76C207.963 5.405 208.108 6.1325 208.108 6.9425C208.108 7.7525 207.963 8.48 207.673 9.125C207.383 9.77 206.965 10.2825 206.42 10.6625C205.88 11.0375 205.233 11.225 204.478 11.225ZM200.75 14.6V2.9H201.943V8.8625H202.093V14.6H200.75ZM204.313 10.0025C204.848 10.0025 205.29 9.8675 205.64 9.5975C205.99 9.3275 206.253 8.9625 206.428 8.5025C206.603 8.0375 206.69 7.5175 206.69 6.9425C206.69 6.3725 206.603 5.8575 206.428 5.3975C206.258 4.9375 205.993 4.5725 205.633 4.3025C205.278 4.0325 204.825 3.8975 204.275 3.8975C203.75 3.8975 203.315 4.0275 202.97 4.2875C202.625 4.5425 202.368 4.9 202.198 5.36C202.028 5.815 201.943 6.3425 201.943 6.9425C201.943 7.5325 202.025 8.06 202.19 8.525C202.36 8.985 202.62 9.3475 202.97 9.6125C203.32 9.8725 203.768 10.0025 204.313 10.0025ZM213.262 11.225C212.467 11.225 211.772 11.05 211.177 10.7C210.587 10.345 210.127 9.8525 209.797 9.2225C209.467 8.5875 209.302 7.8475 209.302 7.0025C209.302 6.1175 209.464 5.3525 209.789 4.7075C210.114 4.0575 210.567 3.5575 211.147 3.2075C211.732 2.8525 212.417 2.675 213.202 2.675C214.017 2.675 214.709 2.8625 215.279 3.2375C215.854 3.6125 216.284 4.1475 216.569 4.8425C216.859 5.5375 216.984 6.365 216.944 7.325H215.594V6.845C215.579 5.85 215.377 5.1075 214.987 4.6175C214.597 4.1225 214.017 3.875 213.247 3.875C212.422 3.875 211.794 4.14 211.364 4.67C210.934 5.2 210.719 5.96 210.719 6.95C210.719 7.905 210.934 8.645 211.364 9.17C211.794 9.695 212.407 9.9575 213.202 9.9575C213.737 9.9575 214.202 9.835 214.597 9.59C214.992 9.345 215.302 8.9925 215.527 8.5325L216.809 8.975C216.494 9.69 216.019 10.245 215.384 10.64C214.754 11.03 214.047 11.225 213.262 11.225ZM210.269 7.325V6.2525H216.254V7.325H210.269ZM218.614 11V2.9H219.806V4.8575L219.611 4.6025C219.706 4.3525 219.829 4.1225 219.979 3.9125C220.134 3.7025 220.306 3.53 220.496 3.395C220.706 3.225 220.944 3.095 221.209 3.005C221.474 2.915 221.744 2.8625 222.019 2.8475C222.294 2.8275 222.551 2.845 222.791 2.9V4.1525C222.511 4.0775 222.204 4.0575 221.869 4.0925C221.534 4.1275 221.224 4.25 220.939 4.46C220.679 4.645 220.476 4.87 220.331 5.135C220.191 5.4 220.094 5.6875 220.039 5.9975C219.984 6.3025 219.956 6.615 219.956 6.935V11H218.614ZM224.36 1.4675V0.0874997H225.695V1.4675H224.36ZM224.36 11V2.9H225.695V11H224.36ZM231.455 11.225C230.66 11.225 229.965 11.05 229.37 10.7C228.78 10.345 228.32 9.8525 227.99 9.2225C227.66 8.5875 227.495 7.8475 227.495 7.0025C227.495 6.1175 227.658 5.3525 227.983 4.7075C228.308 4.0575 228.76 3.5575 229.34 3.2075C229.925 2.8525 230.61 2.675 231.395 2.675C232.21 2.675 232.903 2.8625 233.473 3.2375C234.048 3.6125 234.478 4.1475 234.763 4.8425C235.053 5.5375 235.178 6.365 235.138 7.325H233.788V6.845C233.773 5.85 233.57 5.1075 233.18 4.6175C232.79 4.1225 232.21 3.875 231.44 3.875C230.615 3.875 229.988 4.14 229.558 4.67C229.128 5.2 228.913 5.96 228.913 6.95C228.913 7.905 229.128 8.645 229.558 9.17C229.988 9.695 230.6 9.9575 231.395 9.9575C231.93 9.9575 232.395 9.835 232.79 9.59C233.185 9.345 233.495 8.9925 233.72 8.5325L235.003 8.975C234.688 9.69 234.213 10.245 233.578 10.64C232.948 11.03 232.24 11.225 231.455 11.225ZM228.463 7.325V6.2525H234.448V7.325H228.463ZM242.355 11V6.9425C242.355 6.5575 242.32 6.1875 242.25 5.8325C242.185 5.4775 242.068 5.16 241.898 4.88C241.733 4.595 241.508 4.37 241.223 4.205C240.943 4.04 240.588 3.9575 240.158 3.9575C239.823 3.9575 239.518 4.015 239.243 4.13C238.973 4.24 238.74 4.41 238.545 4.64C238.35 4.87 238.198 5.16 238.088 5.51C237.983 5.855 237.93 6.2625 237.93 6.7325L237.053 6.4625C237.053 5.6775 237.193 5.005 237.473 4.445C237.758 3.88 238.155 3.4475 238.665 3.1475C239.18 2.8425 239.785 2.69 240.48 2.69C241.005 2.69 241.453 2.7725 241.823 2.9375C242.193 3.1025 242.5 3.3225 242.745 3.5975C242.99 3.8675 243.183 4.1725 243.323 4.5125C243.463 4.8475 243.56 5.19 243.615 5.54C243.675 5.885 243.705 6.2125 243.705 6.5225V11H242.355ZM236.58 11V2.9H237.78V5.0675H237.93V11H236.58ZM248.994 11.225C248.174 11.225 247.477 11.0425 246.902 10.6775C246.332 10.3075 245.897 9.8 245.597 9.155C245.297 8.51 245.142 7.775 245.132 6.95C245.142 6.105 245.299 5.3625 245.604 4.7225C245.914 4.0775 246.357 3.575 246.932 3.215C247.507 2.855 248.199 2.675 249.009 2.675C249.864 2.675 250.599 2.885 251.214 3.305C251.834 3.725 252.249 4.3 252.459 5.03L251.139 5.4275C250.969 4.9575 250.692 4.5925 250.307 4.3325C249.927 4.0725 249.489 3.9425 248.994 3.9425C248.439 3.9425 247.982 4.0725 247.622 4.3325C247.262 4.5875 246.994 4.9425 246.819 5.3975C246.644 5.8475 246.554 6.365 246.549 6.95C246.559 7.85 246.767 8.5775 247.172 9.1325C247.582 9.6825 248.189 9.9575 248.994 9.9575C249.524 9.9575 249.964 9.8375 250.314 9.5975C250.664 9.3525 250.929 9 251.109 8.54L252.459 8.8925C252.179 9.6475 251.742 10.225 251.147 10.625C250.552 11.025 249.834 11.225 248.994 11.225ZM257.28 11.225C256.485 11.225 255.79 11.05 255.195 10.7C254.605 10.345 254.145 9.8525 253.815 9.2225C253.485 8.5875 253.32 7.8475 253.32 7.0025C253.32 6.1175 253.483 5.3525 253.808 4.7075C254.133 4.0575 254.585 3.5575 255.165 3.2075C255.75 2.8525 256.435 2.675 257.22 2.675C258.035 2.675 258.728 2.8625 259.298 3.2375C259.873 3.6125 260.303 4.1475 260.588 4.8425C260.878 5.5375 261.003 6.365 260.963 7.325H259.613V6.845C259.598 5.85 259.395 5.1075 259.005 4.6175C258.615 4.1225 258.035 3.875 257.265 3.875C256.44 3.875 255.813 4.14 255.383 4.67C254.953 5.2 254.738 5.96 254.738 6.95C254.738 7.905 254.953 8.645 255.383 9.17C255.813 9.695 256.425 9.9575 257.22 9.9575C257.755 9.9575 258.22 9.835 258.615 9.59C259.01 9.345 259.32 8.9925 259.545 8.5325L260.828 8.975C260.513 9.69 260.038 10.245 259.403 10.64C258.773 11.03 258.065 11.225 257.28 11.225ZM254.288 7.325V6.2525H260.273V7.325H254.288ZM265.693 11.2175C264.728 11.2175 263.935 11.0075 263.315 10.5875C262.7 10.1625 262.323 9.57 262.183 8.81L263.548 8.5925C263.658 9.0325 263.91 9.3825 264.305 9.6425C264.7 9.8975 265.19 10.025 265.775 10.025C266.33 10.025 266.765 9.91 267.08 9.68C267.395 9.45 267.553 9.1375 267.553 8.7425C267.553 8.5125 267.5 8.3275 267.395 8.1875C267.29 8.0425 267.073 7.9075 266.743 7.7825C266.418 7.6575 265.925 7.5075 265.265 7.3325C264.55 7.1425 263.988 6.945 263.578 6.74C263.168 6.535 262.875 6.2975 262.7 6.0275C262.525 5.7575 262.438 5.43 262.438 5.045C262.438 4.57 262.568 4.155 262.828 3.8C263.088 3.44 263.45 3.1625 263.915 2.9675C264.385 2.7725 264.93 2.675 265.55 2.675C266.165 2.675 266.715 2.7725 267.2 2.9675C267.685 3.1625 268.075 3.44 268.37 3.8C268.67 4.155 268.848 4.57 268.903 5.045L267.538 5.2925C267.473 4.8575 267.263 4.515 266.908 4.265C266.558 4.015 266.105 3.8825 265.55 3.8675C265.025 3.8475 264.598 3.94 264.268 4.145C263.943 4.35 263.78 4.6275 263.78 4.9775C263.78 5.1725 263.84 5.34 263.96 5.48C264.085 5.62 264.313 5.7525 264.643 5.8775C264.978 6.0025 265.463 6.145 266.098 6.305C266.813 6.485 267.375 6.6825 267.785 6.8975C268.2 7.1075 268.495 7.3575 268.67 7.6475C268.845 7.9325 268.933 8.285 268.933 8.705C268.933 9.485 268.645 10.1 268.07 10.55C267.495 10.995 266.703 11.2175 265.693 11.2175Z" fill="#FCFCFC"/>
</svg>
