<svg width="22" height="21" viewBox="0 0 22 21" fill="none" xmlns="http://www.w3.org/2000/svg">
<g clip-path="url(#clip0_7_1837)">
<path d="M1.76904 7L2.91004 7.91263C3.30754 8.23056 3.7696 8.45796 4.26401 8.57899C4.75842 8.70001 5.27328 8.71174 5.77268 8.61336C6.27209 8.51498 6.74403 8.30885 7.1556 8.00935C7.56716 7.70985 7.90845 7.32419 8.15567 6.87925L10.519 2.625L12.8824 6.87925C13.1297 7.32412 13.4711 7.7097 13.8827 8.00912C14.2943 8.30853 14.7662 8.51457 15.2656 8.61286C15.765 8.71116 16.2798 8.69935 16.7742 8.57826C17.2686 8.45718 17.7306 8.22972 18.128 7.91175L19.269 7L17.7343 14.6738C17.6673 15.0086 17.5247 15.3238 17.3174 15.5952C17.1101 15.8667 16.8436 16.0872 16.5382 16.24V16.24C14.6693 17.1745 12.6085 17.661 10.519 17.661C8.42956 17.661 6.36878 17.1745 4.49992 16.24V16.24C4.19448 16.0872 3.92796 15.8667 3.72067 15.5952C3.51338 15.3238 3.3708 15.0086 3.30379 14.6738L1.76904 7Z" stroke="white" stroke-width="2" stroke-linecap="round" stroke-linejoin="round"/>
<path d="M7.01904 13.125C9.29054 14.2914 11.7475 14.2914 14.019 13.125" stroke="white" stroke-width="2" stroke-linecap="round" stroke-linejoin="round"/>
</g>
<defs>
<clipPath id="clip0_7_1837">
<rect width="21" height="21" fill="white" transform="translate(0.019043)"/>
</clipPath>
</defs>
</svg>
