<svg width="22" height="21" viewBox="0 0 22 21" fill="none" xmlns="http://www.w3.org/2000/svg">
<path d="M18.394 14.0002V7.00016C18.3937 6.69327 18.3127 6.39187 18.1591 6.12618C18.0056 5.86048 17.7848 5.63985 17.519 5.48641L11.394 1.98641C11.128 1.83281 10.8262 1.75195 10.519 1.75195C10.2119 1.75195 9.91008 1.83281 9.64404 1.98641L3.51904 5.48641C3.25327 5.63985 3.03253 5.86048 2.87895 6.12618C2.72537 6.39187 2.64436 6.69327 2.64404 7.00016V14.0002C2.64436 14.307 2.72537 14.6084 2.87895 14.8741C3.03253 15.1398 3.25327 15.3605 3.51904 15.5139L9.64404 19.0139C9.91008 19.1675 10.2119 19.2484 10.519 19.2484C10.8262 19.2484 11.128 19.1675 11.394 19.0139L17.519 15.5139C17.7848 15.3605 18.0056 15.1398 18.1591 14.8741C18.3127 14.6084 18.3937 14.307 18.394 14.0002Z" stroke="white" stroke-width="2" stroke-linecap="round" stroke-linejoin="round"/>
<path d="M2.88028 6.08984L10.519 10.5086L18.1578 6.08984" stroke="white" stroke-width="2" stroke-linecap="round" stroke-linejoin="round"/>
<path d="M10.519 19.32V10.5" stroke="white" stroke-width="2" stroke-linecap="round" stroke-linejoin="round"/>
</svg>
