<svg width="22" height="21" viewBox="0 0 22 21" fill="none" xmlns="http://www.w3.org/2000/svg">
<g clip-path="url(#clip0_7_1865)">
<path d="M7.89404 13.125L5.29704 15.722C5.008 16.011 4.63977 16.2078 4.23891 16.2875C3.83804 16.3672 3.42254 16.3263 3.04493 16.1699C2.66732 16.0135 2.34456 15.7486 2.11746 15.4088C1.89036 15.069 1.76911 14.6695 1.76904 14.2608V13.125L2.95642 7.189C3.11501 6.39557 3.5436 5.68159 4.16927 5.16855C4.79494 4.6555 5.57904 4.37508 6.38817 4.375H14.6499C15.459 4.37508 16.2431 4.6555 16.8688 5.16855C17.4945 5.68159 17.9231 6.39557 18.0817 7.189L19.269 13.125V14.2599C19.269 14.6686 19.1477 15.0681 18.9206 15.4079C18.6935 15.7477 18.3708 16.0126 17.9932 16.169C17.6156 16.3254 17.2 16.3663 16.7992 16.2866C16.3983 16.2069 16.0301 16.0101 15.741 15.7211L13.144 13.125H7.89404Z" stroke="white" stroke-width="2" stroke-linecap="round" stroke-linejoin="round"/>
<path d="M7.89404 4.375L8.76904 6.125H12.269L13.144 4.375" stroke="white" stroke-width="2" stroke-linecap="round" stroke-linejoin="round"/>
</g>
<defs>
<clipPath id="clip0_7_1865">
<rect width="21" height="21" fill="white" transform="translate(0.019043)"/>
</clipPath>
</defs>
</svg>
