<svg width="22" height="21" viewBox="0 0 22 21" fill="none" xmlns="http://www.w3.org/2000/svg">
<path d="M3.49891 8.61C3.53411 8.17145 3.7332 7.76226 4.05653 7.4639C4.37986 7.16554 4.80371 6.99991 5.24366 7H15.7944C16.2344 6.99991 16.6582 7.16554 16.9815 7.4639C17.3049 7.76226 17.504 8.17145 17.5392 8.61L18.2418 17.36C18.2611 17.6008 18.2304 17.843 18.1515 18.0713C18.0727 18.2996 17.9474 18.5092 17.7836 18.6867C17.6197 18.8643 17.4209 19.006 17.1997 19.1029C16.9784 19.1998 16.7395 19.2499 16.4979 19.25H4.54016C4.2986 19.2499 4.05966 19.1998 3.8384 19.1029C3.61713 19.006 3.41834 18.8643 3.25452 18.6867C3.09071 18.5092 2.96543 18.2996 2.88656 18.0713C2.8077 17.843 2.77696 17.6008 2.79629 17.36L3.49891 8.61V8.61Z" stroke="white" stroke-width="2" stroke-linecap="round" stroke-linejoin="round"/>
<path d="M14.019 9.625V5.25C14.019 4.32174 13.6503 3.4315 12.9939 2.77513C12.3375 2.11875 11.4473 1.75 10.519 1.75C9.59079 1.75 8.70055 2.11875 8.04417 2.77513C7.38779 3.4315 7.01904 4.32174 7.01904 5.25V9.625" stroke="white" stroke-width="2" stroke-linecap="round" stroke-linejoin="round"/>
</svg>
