<svg width="22" height="21" viewBox="0 0 22 21" fill="none" xmlns="http://www.w3.org/2000/svg">
<g clip-path="url(#clip0_7_1847)">
<path d="M4.77377 9.11298C7.1809 9.11298 9.13226 7.16161 9.13226 4.75449C9.13226 2.34736 7.1809 0.395996 4.77377 0.395996C2.36665 0.395996 0.415283 2.34736 0.415283 4.75449C0.415283 7.16161 2.36665 9.11298 4.77377 9.11298Z" fill="white"/>
</g>
<path d="M15.5848 1.52858C15.8927 1.01586 16.636 1.01586 16.9439 1.52858L20.2991 7.12052C20.6161 7.64869 20.2357 8.32069 19.6196 8.32069H12.9091C12.2934 8.32069 11.913 7.64869 12.2296 7.12052L15.5848 1.52858Z" fill="white"/>
<g clip-path="url(#clip1_7_1847)">
<path d="M19.4341 12.2832H13.0945C12.6569 12.2832 12.3021 12.638 12.3021 13.0757V19.4153C12.3021 19.8529 12.6569 20.2077 13.0945 20.2077H19.4341C19.8718 20.2077 20.2266 19.8529 20.2266 19.4153V13.0757C20.2266 12.638 19.8718 12.2832 19.4341 12.2832Z" fill="white"/>
<path d="M15.7135 12.5113C15.8596 12.3652 16.0577 12.2832 16.2643 12.2832C16.4708 12.2832 16.6689 12.3652 16.815 12.5113L19.9983 15.6946C20.1443 15.8407 20.2264 16.0388 20.2264 16.2453C20.2264 16.4519 20.1443 16.65 19.9983 16.7961L16.815 19.9794C16.6689 20.1254 16.4708 20.2075 16.2643 20.2075C16.0577 20.2075 15.8596 20.1254 15.7135 19.9794L12.5302 16.7961C12.3842 16.65 12.3021 16.4519 12.3021 16.2453C12.3021 16.0388 12.3842 15.8407 12.5302 15.6946L15.7135 12.5113Z" fill="white"/>
</g>
<g clip-path="url(#clip2_7_1847)">
<path d="M4.22293 12.5113C4.36901 12.3652 4.56712 12.2832 4.77368 12.2832C4.98025 12.2832 5.17836 12.3652 5.32444 12.5113L8.50772 15.6946C8.65377 15.8407 8.73581 16.0388 8.73581 16.2453C8.73581 16.4519 8.65377 16.65 8.50772 16.7961L5.32444 19.9794C5.17836 20.1254 4.98025 20.2075 4.77368 20.2075C4.56712 20.2075 4.36901 20.1254 4.22293 19.9794L1.03964 16.7961C0.893599 16.65 0.811554 16.4519 0.811554 16.2453C0.811554 16.0388 0.893599 15.8407 1.03964 15.6946L4.22293 12.5113Z" fill="white"/>
</g>
<defs>
<clipPath id="clip0_7_1847">
<rect width="9.50943" height="9.50943" fill="white" transform="translate(0.019043)"/>
</clipPath>
<clipPath id="clip1_7_1847">
<rect width="9.50943" height="9.50943" fill="white" transform="translate(11.5096 11.4907)"/>
</clipPath>
<clipPath id="clip2_7_1847">
<rect width="9.50943" height="9.50943" fill="white" transform="translate(0.019043 11.4907)"/>
</clipPath>
</defs>
</svg>
